G04 #@! TF.GenerationSoftware,KiCad,Pcbnew,5.0.2+dfsg1-1~bpo9+1*
G04 #@! TF.CreationDate,2019-09-01T17:00:00+01:00*
G04 #@! TF.ProjectId,multicart,6d756c74-6963-4617-9274-2e6b69636164,V0.1*
G04 #@! TF.SameCoordinates,Original*
G04 #@! TF.FileFunction,Legend,Top*
G04 #@! TF.FilePolarity,Positive*
%FSLAX46Y46*%
G04 Gerber Fmt 4.6, Leading zero omitted, Abs format (unit mm)*
G04 Created by KiCad (PCBNEW 5.0.2+dfsg1-1~bpo9+1) date Sun 01 Sep 2019 17:00:00 BST*
%MOMM*%
%LPD*%
G01*
G04 APERTURE LIST*
%ADD10C,0.275000*%
%ADD11C,0.300000*%
%ADD12C,0.120000*%
%ADD13C,0.150000*%
G04 APERTURE END LIST*
D10*
X77648692Y-50965842D02*
X77534407Y-50908700D01*
X77477264Y-50851557D01*
X77420121Y-50737271D01*
X77420121Y-50680128D01*
X77477264Y-50565842D01*
X77534407Y-50508700D01*
X77648692Y-50451557D01*
X77877264Y-50451557D01*
X77991550Y-50508700D01*
X78048692Y-50565842D01*
X78105835Y-50680128D01*
X78105835Y-50737271D01*
X78048692Y-50851557D01*
X77991550Y-50908700D01*
X77877264Y-50965842D01*
X77648692Y-50965842D01*
X77534407Y-51022985D01*
X77477264Y-51080128D01*
X77420121Y-51194414D01*
X77420121Y-51422985D01*
X77477264Y-51537271D01*
X77534407Y-51594414D01*
X77648692Y-51651557D01*
X77877264Y-51651557D01*
X77991550Y-51594414D01*
X78048692Y-51537271D01*
X78105835Y-51422985D01*
X78105835Y-51194414D01*
X78048692Y-51080128D01*
X77991550Y-51022985D01*
X77877264Y-50965842D01*
X78620121Y-51651557D02*
X78620121Y-50451557D01*
X79305835Y-51651557D02*
X78791550Y-50965842D01*
X79305835Y-50451557D02*
X78620121Y-51137271D01*
X79820121Y-51537271D02*
X79877264Y-51594414D01*
X79820121Y-51651557D01*
X79762978Y-51594414D01*
X79820121Y-51537271D01*
X79820121Y-51651557D01*
X79820121Y-50908700D02*
X79877264Y-50965842D01*
X79820121Y-51022985D01*
X79762978Y-50965842D01*
X79820121Y-50908700D01*
X79820121Y-51022985D01*
X81648692Y-50451557D02*
X81648692Y-51308700D01*
X81591550Y-51480128D01*
X81477264Y-51594414D01*
X81305835Y-51651557D01*
X81191550Y-51651557D01*
X82220121Y-51651557D02*
X82220121Y-50451557D01*
X82677264Y-50451557D01*
X82791550Y-50508700D01*
X82848692Y-50565842D01*
X82905835Y-50680128D01*
X82905835Y-50851557D01*
X82848692Y-50965842D01*
X82791550Y-51022985D01*
X82677264Y-51080128D01*
X82220121Y-51080128D01*
X83362978Y-50565842D02*
X83420121Y-50508700D01*
X83534407Y-50451557D01*
X83820121Y-50451557D01*
X83934407Y-50508700D01*
X83991550Y-50565842D01*
X84048692Y-50680128D01*
X84048692Y-50794414D01*
X83991550Y-50965842D01*
X83305835Y-51651557D01*
X84048692Y-51651557D01*
X86448692Y-51651557D02*
X86391550Y-51651557D01*
X86277264Y-51594414D01*
X86105835Y-51422985D01*
X85820121Y-51080128D01*
X85705835Y-50908700D01*
X85648692Y-50737271D01*
X85648692Y-50622985D01*
X85705835Y-50508700D01*
X85820121Y-50451557D01*
X85877264Y-50451557D01*
X85991550Y-50508700D01*
X86048692Y-50622985D01*
X86048692Y-50680128D01*
X85991550Y-50794414D01*
X85934407Y-50851557D01*
X85591550Y-51080128D01*
X85534407Y-51137271D01*
X85477264Y-51251557D01*
X85477264Y-51422985D01*
X85534407Y-51537271D01*
X85591550Y-51594414D01*
X85705835Y-51651557D01*
X85877264Y-51651557D01*
X85991550Y-51594414D01*
X86048692Y-51537271D01*
X86220121Y-51308700D01*
X86277264Y-51137271D01*
X86277264Y-51022985D01*
X88220121Y-50451557D02*
X88220121Y-51308700D01*
X88162978Y-51480128D01*
X88048692Y-51594414D01*
X87877264Y-51651557D01*
X87762978Y-51651557D01*
X88791550Y-51651557D02*
X88791550Y-50451557D01*
X89248692Y-50451557D01*
X89362978Y-50508700D01*
X89420121Y-50565842D01*
X89477264Y-50680128D01*
X89477264Y-50851557D01*
X89420121Y-50965842D01*
X89362978Y-51022985D01*
X89248692Y-51080128D01*
X88791550Y-51080128D01*
X90505835Y-50851557D02*
X90505835Y-51651557D01*
X90220121Y-50394414D02*
X89934407Y-51251557D01*
X90677264Y-51251557D01*
X77362978Y-52526557D02*
X78105835Y-52526557D01*
X77705835Y-52983700D01*
X77877264Y-52983700D01*
X77991550Y-53040842D01*
X78048692Y-53097985D01*
X78105835Y-53212271D01*
X78105835Y-53497985D01*
X78048692Y-53612271D01*
X77991550Y-53669414D01*
X77877264Y-53726557D01*
X77534407Y-53726557D01*
X77420121Y-53669414D01*
X77362978Y-53612271D01*
X78562978Y-52640842D02*
X78620121Y-52583700D01*
X78734407Y-52526557D01*
X79020121Y-52526557D01*
X79134407Y-52583700D01*
X79191550Y-52640842D01*
X79248692Y-52755128D01*
X79248692Y-52869414D01*
X79191550Y-53040842D01*
X78505835Y-53726557D01*
X79248692Y-53726557D01*
X79762978Y-53726557D02*
X79762978Y-52526557D01*
X80448692Y-53726557D02*
X79934407Y-53040842D01*
X80448692Y-52526557D02*
X79762978Y-53212271D01*
X80962978Y-53612271D02*
X81020121Y-53669414D01*
X80962978Y-53726557D01*
X80905835Y-53669414D01*
X80962978Y-53612271D01*
X80962978Y-53726557D01*
X80962978Y-52983700D02*
X81020121Y-53040842D01*
X80962978Y-53097985D01*
X80905835Y-53040842D01*
X80962978Y-52983700D01*
X80962978Y-53097985D01*
X82791550Y-52526557D02*
X82791550Y-53383700D01*
X82734407Y-53555128D01*
X82620121Y-53669414D01*
X82448692Y-53726557D01*
X82334407Y-53726557D01*
X83362978Y-53726557D02*
X83362978Y-52526557D01*
X83820121Y-52526557D01*
X83934407Y-52583700D01*
X83991550Y-52640842D01*
X84048692Y-52755128D01*
X84048692Y-52926557D01*
X83991550Y-53040842D01*
X83934407Y-53097985D01*
X83820121Y-53155128D01*
X83362978Y-53155128D01*
X85191550Y-53726557D02*
X84505835Y-53726557D01*
X84848692Y-53726557D02*
X84848692Y-52526557D01*
X84734407Y-52697985D01*
X84620121Y-52812271D01*
X84505835Y-52869414D01*
X87591550Y-53726557D02*
X87534407Y-53726557D01*
X87420121Y-53669414D01*
X87248692Y-53497985D01*
X86962978Y-53155128D01*
X86848692Y-52983700D01*
X86791550Y-52812271D01*
X86791550Y-52697985D01*
X86848692Y-52583700D01*
X86962978Y-52526557D01*
X87020121Y-52526557D01*
X87134407Y-52583700D01*
X87191550Y-52697985D01*
X87191550Y-52755128D01*
X87134407Y-52869414D01*
X87077264Y-52926557D01*
X86734407Y-53155128D01*
X86677264Y-53212271D01*
X86620121Y-53326557D01*
X86620121Y-53497985D01*
X86677264Y-53612271D01*
X86734407Y-53669414D01*
X86848692Y-53726557D01*
X87020121Y-53726557D01*
X87134407Y-53669414D01*
X87191550Y-53612271D01*
X87362978Y-53383700D01*
X87420121Y-53212271D01*
X87420121Y-53097985D01*
X89362978Y-52526557D02*
X89362978Y-53383700D01*
X89305835Y-53555128D01*
X89191550Y-53669414D01*
X89020121Y-53726557D01*
X88905835Y-53726557D01*
X89934407Y-53726557D02*
X89934407Y-52526557D01*
X90391550Y-52526557D01*
X90505835Y-52583700D01*
X90562978Y-52640842D01*
X90620121Y-52755128D01*
X90620121Y-52926557D01*
X90562978Y-53040842D01*
X90505835Y-53097985D01*
X90391550Y-53155128D01*
X89934407Y-53155128D01*
X91020121Y-52526557D02*
X91762978Y-52526557D01*
X91362978Y-52983700D01*
X91534407Y-52983700D01*
X91648692Y-53040842D01*
X91705835Y-53097985D01*
X91762978Y-53212271D01*
X91762978Y-53497985D01*
X91705835Y-53612271D01*
X91648692Y-53669414D01*
X91534407Y-53726557D01*
X91191550Y-53726557D01*
X91077264Y-53669414D01*
X91020121Y-53612271D01*
D11*
X119952428Y-72522342D02*
X118452428Y-73022342D01*
X119952428Y-73522342D01*
X119238142Y-74022342D02*
X119238142Y-74522342D01*
X118452428Y-74736628D02*
X118452428Y-74022342D01*
X119952428Y-74022342D01*
X119952428Y-74736628D01*
X118595285Y-76236628D02*
X118523857Y-76165200D01*
X118452428Y-75950914D01*
X118452428Y-75808057D01*
X118523857Y-75593771D01*
X118666714Y-75450914D01*
X118809571Y-75379485D01*
X119095285Y-75308057D01*
X119309571Y-75308057D01*
X119595285Y-75379485D01*
X119738142Y-75450914D01*
X119881000Y-75593771D01*
X119952428Y-75808057D01*
X119952428Y-75950914D01*
X119881000Y-76165200D01*
X119809571Y-76236628D01*
X119952428Y-76665200D02*
X119952428Y-77522342D01*
X118452428Y-77093771D02*
X119952428Y-77093771D01*
X118452428Y-78879485D02*
X119166714Y-78379485D01*
X118452428Y-78022342D02*
X119952428Y-78022342D01*
X119952428Y-78593771D01*
X119881000Y-78736628D01*
X119809571Y-78808057D01*
X119666714Y-78879485D01*
X119452428Y-78879485D01*
X119309571Y-78808057D01*
X119238142Y-78736628D01*
X119166714Y-78593771D01*
X119166714Y-78022342D01*
X119238142Y-79522342D02*
X119238142Y-80022342D01*
X118452428Y-80236628D02*
X118452428Y-79522342D01*
X119952428Y-79522342D01*
X119952428Y-80236628D01*
X119952428Y-80736628D02*
X118452428Y-81736628D01*
X119952428Y-81736628D02*
X118452428Y-80736628D01*
X115902428Y-72593771D02*
X117402428Y-72593771D01*
X116331000Y-73093771D01*
X117402428Y-73593771D01*
X115902428Y-73593771D01*
X116902428Y-74950914D02*
X115902428Y-74950914D01*
X116902428Y-74308057D02*
X116116714Y-74308057D01*
X115973857Y-74379485D01*
X115902428Y-74522342D01*
X115902428Y-74736628D01*
X115973857Y-74879485D01*
X116045285Y-74950914D01*
X115902428Y-75879485D02*
X115973857Y-75736628D01*
X116116714Y-75665200D01*
X117402428Y-75665200D01*
X116902428Y-76236628D02*
X116902428Y-76808057D01*
X117402428Y-76450914D02*
X116116714Y-76450914D01*
X115973857Y-76522342D01*
X115902428Y-76665200D01*
X115902428Y-76808057D01*
X115902428Y-77308057D02*
X116902428Y-77308057D01*
X117402428Y-77308057D02*
X117331000Y-77236628D01*
X117259571Y-77308057D01*
X117331000Y-77379485D01*
X117402428Y-77308057D01*
X117259571Y-77308057D01*
X115973857Y-78665200D02*
X115902428Y-78522342D01*
X115902428Y-78236628D01*
X115973857Y-78093771D01*
X116045285Y-78022342D01*
X116188142Y-77950914D01*
X116616714Y-77950914D01*
X116759571Y-78022342D01*
X116831000Y-78093771D01*
X116902428Y-78236628D01*
X116902428Y-78522342D01*
X116831000Y-78665200D01*
X115902428Y-79950914D02*
X116688142Y-79950914D01*
X116831000Y-79879485D01*
X116902428Y-79736628D01*
X116902428Y-79450914D01*
X116831000Y-79308057D01*
X115973857Y-79950914D02*
X115902428Y-79808057D01*
X115902428Y-79450914D01*
X115973857Y-79308057D01*
X116116714Y-79236628D01*
X116259571Y-79236628D01*
X116402428Y-79308057D01*
X116473857Y-79450914D01*
X116473857Y-79808057D01*
X116545285Y-79950914D01*
X115902428Y-80665200D02*
X116902428Y-80665200D01*
X116616714Y-80665200D02*
X116759571Y-80736628D01*
X116831000Y-80808057D01*
X116902428Y-80950914D01*
X116902428Y-81093771D01*
X116902428Y-81379485D02*
X116902428Y-81950914D01*
X117402428Y-81593771D02*
X116116714Y-81593771D01*
X115973857Y-81665200D01*
X115902428Y-81808057D01*
X115902428Y-81950914D01*
X119760142Y-52289885D02*
X120960142Y-52289885D01*
X119760142Y-52975600D01*
X120960142Y-52975600D01*
X119760142Y-54061314D02*
X120388714Y-54061314D01*
X120503000Y-54004171D01*
X120560142Y-53889885D01*
X120560142Y-53661314D01*
X120503000Y-53547028D01*
X119817285Y-54061314D02*
X119760142Y-53947028D01*
X119760142Y-53661314D01*
X119817285Y-53547028D01*
X119931571Y-53489885D01*
X120045857Y-53489885D01*
X120160142Y-53547028D01*
X120217285Y-53661314D01*
X120217285Y-53947028D01*
X120274428Y-54061314D01*
X120560142Y-54461314D02*
X120560142Y-54918457D01*
X120960142Y-54632742D02*
X119931571Y-54632742D01*
X119817285Y-54689885D01*
X119760142Y-54804171D01*
X119760142Y-54918457D01*
X120560142Y-55832742D02*
X119760142Y-55832742D01*
X120560142Y-55318457D02*
X119931571Y-55318457D01*
X119817285Y-55375600D01*
X119760142Y-55489885D01*
X119760142Y-55661314D01*
X119817285Y-55775600D01*
X119874428Y-55832742D01*
X119760142Y-56404171D02*
X120560142Y-56404171D01*
X120331571Y-56404171D02*
X120445857Y-56461314D01*
X120503000Y-56518457D01*
X120560142Y-56632742D01*
X120560142Y-56747028D01*
X119760142Y-57661314D02*
X120388714Y-57661314D01*
X120503000Y-57604171D01*
X120560142Y-57489885D01*
X120560142Y-57261314D01*
X120503000Y-57147028D01*
X119817285Y-57661314D02*
X119760142Y-57547028D01*
X119760142Y-57261314D01*
X119817285Y-57147028D01*
X119931571Y-57089885D01*
X120045857Y-57089885D01*
X120160142Y-57147028D01*
X120217285Y-57261314D01*
X120217285Y-57547028D01*
X120274428Y-57661314D01*
X119760142Y-58404171D02*
X119817285Y-58289885D01*
X119931571Y-58232742D01*
X120960142Y-58232742D01*
X120960142Y-58689885D02*
X120960142Y-59375600D01*
X119760142Y-59032742D02*
X120960142Y-59032742D01*
X119760142Y-60289885D02*
X120388714Y-60289885D01*
X120503000Y-60232742D01*
X120560142Y-60118457D01*
X120560142Y-59889885D01*
X120503000Y-59775600D01*
X119817285Y-60289885D02*
X119760142Y-60175600D01*
X119760142Y-59889885D01*
X119817285Y-59775600D01*
X119931571Y-59718457D01*
X120045857Y-59718457D01*
X120160142Y-59775600D01*
X120217285Y-59889885D01*
X120217285Y-60175600D01*
X120274428Y-60289885D01*
X120560142Y-60861314D02*
X119760142Y-60861314D01*
X120445857Y-60861314D02*
X120503000Y-60918457D01*
X120560142Y-61032742D01*
X120560142Y-61204171D01*
X120503000Y-61318457D01*
X120388714Y-61375600D01*
X119760142Y-61375600D01*
X120560142Y-62461314D02*
X119588714Y-62461314D01*
X119474428Y-62404171D01*
X119417285Y-62347028D01*
X119360142Y-62232742D01*
X119360142Y-62061314D01*
X119417285Y-61947028D01*
X119817285Y-62461314D02*
X119760142Y-62347028D01*
X119760142Y-62118457D01*
X119817285Y-62004171D01*
X119874428Y-61947028D01*
X119988714Y-61889885D01*
X120331571Y-61889885D01*
X120445857Y-61947028D01*
X120503000Y-62004171D01*
X120560142Y-62118457D01*
X120560142Y-62347028D01*
X120503000Y-62461314D01*
X119817285Y-63489885D02*
X119760142Y-63375600D01*
X119760142Y-63147028D01*
X119817285Y-63032742D01*
X119931571Y-62975600D01*
X120388714Y-62975600D01*
X120503000Y-63032742D01*
X120560142Y-63147028D01*
X120560142Y-63375600D01*
X120503000Y-63489885D01*
X120388714Y-63547028D01*
X120274428Y-63547028D01*
X120160142Y-62975600D01*
X120560142Y-64061314D02*
X119760142Y-64061314D01*
X120445857Y-64061314D02*
X120503000Y-64118457D01*
X120560142Y-64232742D01*
X120560142Y-64404171D01*
X120503000Y-64518457D01*
X120388714Y-64575600D01*
X119760142Y-64575600D01*
X120560142Y-64975600D02*
X120560142Y-65432742D01*
X120960142Y-65147028D02*
X119931571Y-65147028D01*
X119817285Y-65204171D01*
X119760142Y-65318457D01*
X119760142Y-65432742D01*
X118745857Y-56718457D02*
X118803000Y-56775600D01*
X118860142Y-56889885D01*
X118860142Y-57175600D01*
X118803000Y-57289885D01*
X118745857Y-57347028D01*
X118631571Y-57404171D01*
X118517285Y-57404171D01*
X118345857Y-57347028D01*
X117660142Y-56661314D01*
X117660142Y-57404171D01*
X118860142Y-58147028D02*
X118860142Y-58261314D01*
X118803000Y-58375600D01*
X118745857Y-58432742D01*
X118631571Y-58489885D01*
X118403000Y-58547028D01*
X118117285Y-58547028D01*
X117888714Y-58489885D01*
X117774428Y-58432742D01*
X117717285Y-58375600D01*
X117660142Y-58261314D01*
X117660142Y-58147028D01*
X117717285Y-58032742D01*
X117774428Y-57975600D01*
X117888714Y-57918457D01*
X118117285Y-57861314D01*
X118403000Y-57861314D01*
X118631571Y-57918457D01*
X118745857Y-57975600D01*
X118803000Y-58032742D01*
X118860142Y-58147028D01*
X117660142Y-59689885D02*
X117660142Y-59004171D01*
X117660142Y-59347028D02*
X118860142Y-59347028D01*
X118688714Y-59232742D01*
X118574428Y-59118457D01*
X118517285Y-59004171D01*
X117660142Y-60261314D02*
X117660142Y-60489885D01*
X117717285Y-60604171D01*
X117774428Y-60661314D01*
X117945857Y-60775600D01*
X118174428Y-60832742D01*
X118631571Y-60832742D01*
X118745857Y-60775600D01*
X118803000Y-60718457D01*
X118860142Y-60604171D01*
X118860142Y-60375600D01*
X118803000Y-60261314D01*
X118745857Y-60204171D01*
X118631571Y-60147028D01*
X118345857Y-60147028D01*
X118231571Y-60204171D01*
X118174428Y-60261314D01*
X118117285Y-60375600D01*
X118117285Y-60604171D01*
X118174428Y-60718457D01*
X118231571Y-60775600D01*
X118345857Y-60832742D01*
D12*
G04 #@! TO.C,R6*
X86666400Y-84397600D02*
X86996400Y-84397600D01*
X86666400Y-77857600D02*
X86666400Y-84397600D01*
X86996400Y-77857600D02*
X86666400Y-77857600D01*
X89406400Y-84397600D02*
X89076400Y-84397600D01*
X89406400Y-77857600D02*
X89406400Y-84397600D01*
X89076400Y-77857600D02*
X89406400Y-77857600D01*
G04 #@! TO.C,C1*
X87291400Y-49010200D02*
X87291400Y-49325200D01*
X87291400Y-46585200D02*
X87291400Y-46900200D01*
X82351400Y-49010200D02*
X82351400Y-49325200D01*
X82351400Y-46585200D02*
X82351400Y-46900200D01*
X82351400Y-49325200D02*
X87291400Y-49325200D01*
X82351400Y-46585200D02*
X87291400Y-46585200D01*
G04 #@! TO.C,R5*
X82297600Y-84473800D02*
X82627600Y-84473800D01*
X82297600Y-77933800D02*
X82297600Y-84473800D01*
X82627600Y-77933800D02*
X82297600Y-77933800D01*
X85037600Y-84473800D02*
X84707600Y-84473800D01*
X85037600Y-77933800D02*
X85037600Y-84473800D01*
X84707600Y-77933800D02*
X85037600Y-77933800D01*
G04 #@! TO.C,R4*
X78106600Y-84397600D02*
X78436600Y-84397600D01*
X78106600Y-77857600D02*
X78106600Y-84397600D01*
X78436600Y-77857600D02*
X78106600Y-77857600D01*
X80846600Y-84397600D02*
X80516600Y-84397600D01*
X80846600Y-77857600D02*
X80846600Y-84397600D01*
X80516600Y-77857600D02*
X80846600Y-77857600D01*
G04 #@! TO.C,R3*
X73864800Y-84397600D02*
X74194800Y-84397600D01*
X73864800Y-77857600D02*
X73864800Y-84397600D01*
X74194800Y-77857600D02*
X73864800Y-77857600D01*
X76604800Y-84397600D02*
X76274800Y-84397600D01*
X76604800Y-77857600D02*
X76604800Y-84397600D01*
X76274800Y-77857600D02*
X76604800Y-77857600D01*
G04 #@! TO.C,R2*
X69750000Y-84397600D02*
X70080000Y-84397600D01*
X69750000Y-77857600D02*
X69750000Y-84397600D01*
X70080000Y-77857600D02*
X69750000Y-77857600D01*
X72490000Y-84397600D02*
X72160000Y-84397600D01*
X72490000Y-77857600D02*
X72490000Y-84397600D01*
X72160000Y-77857600D02*
X72490000Y-77857600D01*
G04 #@! TO.C,R1*
X65559000Y-84448400D02*
X65889000Y-84448400D01*
X65559000Y-77908400D02*
X65559000Y-84448400D01*
X65889000Y-77908400D02*
X65559000Y-77908400D01*
X68299000Y-84448400D02*
X67969000Y-84448400D01*
X68299000Y-77908400D02*
X68299000Y-84448400D01*
X67969000Y-77908400D02*
X68299000Y-77908400D01*
G04 #@! TO.C,SW1*
X71923667Y-51282600D02*
X71923667Y-50012600D01*
X73277000Y-50082600D02*
X71923667Y-50082600D01*
X73277000Y-50202600D02*
X71923667Y-50202600D01*
X73277000Y-50322600D02*
X71923667Y-50322600D01*
X73277000Y-50442600D02*
X71923667Y-50442600D01*
X73277000Y-50562600D02*
X71923667Y-50562600D01*
X73277000Y-50682600D02*
X71923667Y-50682600D01*
X73277000Y-50802600D02*
X71923667Y-50802600D01*
X73277000Y-50922600D02*
X71923667Y-50922600D01*
X73277000Y-51042600D02*
X71923667Y-51042600D01*
X73277000Y-51162600D02*
X71923667Y-51162600D01*
X69217000Y-51282600D02*
X73277000Y-51282600D01*
X69217000Y-50012600D02*
X69217000Y-51282600D01*
X73277000Y-50012600D02*
X69217000Y-50012600D01*
X73277000Y-51282600D02*
X73277000Y-50012600D01*
X71923667Y-53822600D02*
X71923667Y-52552600D01*
X73277000Y-52622600D02*
X71923667Y-52622600D01*
X73277000Y-52742600D02*
X71923667Y-52742600D01*
X73277000Y-52862600D02*
X71923667Y-52862600D01*
X73277000Y-52982600D02*
X71923667Y-52982600D01*
X73277000Y-53102600D02*
X71923667Y-53102600D01*
X73277000Y-53222600D02*
X71923667Y-53222600D01*
X73277000Y-53342600D02*
X71923667Y-53342600D01*
X73277000Y-53462600D02*
X71923667Y-53462600D01*
X73277000Y-53582600D02*
X71923667Y-53582600D01*
X73277000Y-53702600D02*
X71923667Y-53702600D01*
X69217000Y-53822600D02*
X73277000Y-53822600D01*
X69217000Y-52552600D02*
X69217000Y-53822600D01*
X73277000Y-52552600D02*
X69217000Y-52552600D01*
X73277000Y-53822600D02*
X73277000Y-52552600D01*
X71923667Y-56362600D02*
X71923667Y-55092600D01*
X73277000Y-55162600D02*
X71923667Y-55162600D01*
X73277000Y-55282600D02*
X71923667Y-55282600D01*
X73277000Y-55402600D02*
X71923667Y-55402600D01*
X73277000Y-55522600D02*
X71923667Y-55522600D01*
X73277000Y-55642600D02*
X71923667Y-55642600D01*
X73277000Y-55762600D02*
X71923667Y-55762600D01*
X73277000Y-55882600D02*
X71923667Y-55882600D01*
X73277000Y-56002600D02*
X71923667Y-56002600D01*
X73277000Y-56122600D02*
X71923667Y-56122600D01*
X73277000Y-56242600D02*
X71923667Y-56242600D01*
X69217000Y-56362600D02*
X73277000Y-56362600D01*
X69217000Y-55092600D02*
X69217000Y-56362600D01*
X73277000Y-55092600D02*
X69217000Y-55092600D01*
X73277000Y-56362600D02*
X73277000Y-55092600D01*
X71923667Y-58902600D02*
X71923667Y-57632600D01*
X73277000Y-57702600D02*
X71923667Y-57702600D01*
X73277000Y-57822600D02*
X71923667Y-57822600D01*
X73277000Y-57942600D02*
X71923667Y-57942600D01*
X73277000Y-58062600D02*
X71923667Y-58062600D01*
X73277000Y-58182600D02*
X71923667Y-58182600D01*
X73277000Y-58302600D02*
X71923667Y-58302600D01*
X73277000Y-58422600D02*
X71923667Y-58422600D01*
X73277000Y-58542600D02*
X71923667Y-58542600D01*
X73277000Y-58662600D02*
X71923667Y-58662600D01*
X73277000Y-58782600D02*
X71923667Y-58782600D01*
X69217000Y-58902600D02*
X73277000Y-58902600D01*
X69217000Y-57632600D02*
X69217000Y-58902600D01*
X73277000Y-57632600D02*
X69217000Y-57632600D01*
X73277000Y-58902600D02*
X73277000Y-57632600D01*
X71923667Y-61442600D02*
X71923667Y-60172600D01*
X73277000Y-60242600D02*
X71923667Y-60242600D01*
X73277000Y-60362600D02*
X71923667Y-60362600D01*
X73277000Y-60482600D02*
X71923667Y-60482600D01*
X73277000Y-60602600D02*
X71923667Y-60602600D01*
X73277000Y-60722600D02*
X71923667Y-60722600D01*
X73277000Y-60842600D02*
X71923667Y-60842600D01*
X73277000Y-60962600D02*
X71923667Y-60962600D01*
X73277000Y-61082600D02*
X71923667Y-61082600D01*
X73277000Y-61202600D02*
X71923667Y-61202600D01*
X73277000Y-61322600D02*
X71923667Y-61322600D01*
X69217000Y-61442600D02*
X73277000Y-61442600D01*
X69217000Y-60172600D02*
X69217000Y-61442600D01*
X73277000Y-60172600D02*
X69217000Y-60172600D01*
X73277000Y-61442600D02*
X73277000Y-60172600D01*
X71923667Y-63982600D02*
X71923667Y-62712600D01*
X73277000Y-62782600D02*
X71923667Y-62782600D01*
X73277000Y-62902600D02*
X71923667Y-62902600D01*
X73277000Y-63022600D02*
X71923667Y-63022600D01*
X73277000Y-63142600D02*
X71923667Y-63142600D01*
X73277000Y-63262600D02*
X71923667Y-63262600D01*
X73277000Y-63382600D02*
X71923667Y-63382600D01*
X73277000Y-63502600D02*
X71923667Y-63502600D01*
X73277000Y-63622600D02*
X71923667Y-63622600D01*
X73277000Y-63742600D02*
X71923667Y-63742600D01*
X73277000Y-63862600D02*
X71923667Y-63862600D01*
X69217000Y-63982600D02*
X73277000Y-63982600D01*
X69217000Y-62712600D02*
X69217000Y-63982600D01*
X73277000Y-62712600D02*
X69217000Y-62712600D01*
X73277000Y-63982600D02*
X73277000Y-62712600D01*
X71923667Y-66522600D02*
X71923667Y-65252600D01*
X73277000Y-65322600D02*
X71923667Y-65322600D01*
X73277000Y-65442600D02*
X71923667Y-65442600D01*
X73277000Y-65562600D02*
X71923667Y-65562600D01*
X73277000Y-65682600D02*
X71923667Y-65682600D01*
X73277000Y-65802600D02*
X71923667Y-65802600D01*
X73277000Y-65922600D02*
X71923667Y-65922600D01*
X73277000Y-66042600D02*
X71923667Y-66042600D01*
X73277000Y-66162600D02*
X71923667Y-66162600D01*
X73277000Y-66282600D02*
X71923667Y-66282600D01*
X73277000Y-66402600D02*
X71923667Y-66402600D01*
X69217000Y-66522600D02*
X73277000Y-66522600D01*
X69217000Y-65252600D02*
X69217000Y-66522600D01*
X73277000Y-65252600D02*
X69217000Y-65252600D01*
X73277000Y-66522600D02*
X73277000Y-65252600D01*
X71923667Y-69062600D02*
X71923667Y-67792600D01*
X73277000Y-67862600D02*
X71923667Y-67862600D01*
X73277000Y-67982600D02*
X71923667Y-67982600D01*
X73277000Y-68102600D02*
X71923667Y-68102600D01*
X73277000Y-68222600D02*
X71923667Y-68222600D01*
X73277000Y-68342600D02*
X71923667Y-68342600D01*
X73277000Y-68462600D02*
X71923667Y-68462600D01*
X73277000Y-68582600D02*
X71923667Y-68582600D01*
X73277000Y-68702600D02*
X71923667Y-68702600D01*
X73277000Y-68822600D02*
X71923667Y-68822600D01*
X73277000Y-68942600D02*
X71923667Y-68942600D01*
X69217000Y-69062600D02*
X73277000Y-69062600D01*
X69217000Y-67792600D02*
X69217000Y-69062600D01*
X73277000Y-67792600D02*
X69217000Y-67792600D01*
X73277000Y-69062600D02*
X73277000Y-67792600D01*
X76437000Y-71087600D02*
X76437000Y-69704600D01*
X76437000Y-71087600D02*
X75053000Y-71087600D01*
X66297000Y-70847600D02*
X66297000Y-48226600D01*
X76197000Y-70847600D02*
X76197000Y-48226600D01*
X76197000Y-48226600D02*
X66297000Y-48226600D01*
X76197000Y-70847600D02*
X66297000Y-70847600D01*
G04 #@! TO.C,U1*
X110634600Y-47454200D02*
X92514600Y-47454200D01*
X110634600Y-88334200D02*
X110634600Y-47454200D01*
X92514600Y-88334200D02*
X110634600Y-88334200D01*
X92514600Y-47454200D02*
X92514600Y-88334200D01*
X107634600Y-47514200D02*
X102574600Y-47514200D01*
X107634600Y-88274200D02*
X107634600Y-47514200D01*
X95514600Y-88274200D02*
X107634600Y-88274200D01*
X95514600Y-47514200D02*
X95514600Y-88274200D01*
X100574600Y-47514200D02*
X95514600Y-47514200D01*
X102574600Y-47514200D02*
G75*
G02X100574600Y-47514200I-1000000J0D01*
G01*
G04 #@! TO.C,JP1*
X86604800Y-65040200D02*
X87934800Y-65040200D01*
X86604800Y-66370200D02*
X86604800Y-65040200D01*
X86604800Y-67640200D02*
X89264800Y-67640200D01*
X89264800Y-67640200D02*
X89264800Y-70240200D01*
X86604800Y-67640200D02*
X86604800Y-70240200D01*
X86604800Y-70240200D02*
X89264800Y-70240200D01*
G04 #@! TO.C,JP2*
X81423200Y-65116400D02*
X82753200Y-65116400D01*
X81423200Y-66446400D02*
X81423200Y-65116400D01*
X81423200Y-67716400D02*
X84083200Y-67716400D01*
X84083200Y-67716400D02*
X84083200Y-70316400D01*
X81423200Y-67716400D02*
X81423200Y-70316400D01*
X81423200Y-70316400D02*
X84083200Y-70316400D01*
G04 #@! TO.C,JP3*
X89468000Y-61655000D02*
X88138000Y-61655000D01*
X89468000Y-60325000D02*
X89468000Y-61655000D01*
X89468000Y-59055000D02*
X86808000Y-59055000D01*
X86808000Y-59055000D02*
X86808000Y-56455000D01*
X89468000Y-59055000D02*
X89468000Y-56455000D01*
X89468000Y-56455000D02*
X86808000Y-56455000D01*
G04 #@! TO.C,JP4*
X83956200Y-61782000D02*
X82626200Y-61782000D01*
X83956200Y-60452000D02*
X83956200Y-61782000D01*
X83956200Y-59182000D02*
X81296200Y-59182000D01*
X81296200Y-59182000D02*
X81296200Y-56582000D01*
X83956200Y-59182000D02*
X83956200Y-56582000D01*
X83956200Y-56582000D02*
X81296200Y-56582000D01*
G04 #@! TO.C,R6*
D13*
X88072933Y-75433180D02*
X87739600Y-74956990D01*
X87501504Y-75433180D02*
X87501504Y-74433180D01*
X87882457Y-74433180D01*
X87977695Y-74480800D01*
X88025314Y-74528419D01*
X88072933Y-74623657D01*
X88072933Y-74766514D01*
X88025314Y-74861752D01*
X87977695Y-74909371D01*
X87882457Y-74956990D01*
X87501504Y-74956990D01*
X88930076Y-74433180D02*
X88739600Y-74433180D01*
X88644361Y-74480800D01*
X88596742Y-74528419D01*
X88501504Y-74671276D01*
X88453885Y-74861752D01*
X88453885Y-75242704D01*
X88501504Y-75337942D01*
X88549123Y-75385561D01*
X88644361Y-75433180D01*
X88834838Y-75433180D01*
X88930076Y-75385561D01*
X88977695Y-75337942D01*
X89025314Y-75242704D01*
X89025314Y-75004609D01*
X88977695Y-74909371D01*
X88930076Y-74861752D01*
X88834838Y-74814133D01*
X88644361Y-74814133D01*
X88549123Y-74861752D01*
X88501504Y-74909371D01*
X88453885Y-75004609D01*
X87212561Y-87904580D02*
X86641133Y-87904580D01*
X86926847Y-87904580D02*
X86926847Y-86904580D01*
X86831609Y-87047438D01*
X86736371Y-87142676D01*
X86641133Y-87190295D01*
X87831609Y-86904580D02*
X87926847Y-86904580D01*
X88022085Y-86952200D01*
X88069704Y-86999819D01*
X88117323Y-87095057D01*
X88164942Y-87285533D01*
X88164942Y-87523628D01*
X88117323Y-87714104D01*
X88069704Y-87809342D01*
X88022085Y-87856961D01*
X87926847Y-87904580D01*
X87831609Y-87904580D01*
X87736371Y-87856961D01*
X87688752Y-87809342D01*
X87641133Y-87714104D01*
X87593514Y-87523628D01*
X87593514Y-87285533D01*
X87641133Y-87095057D01*
X87688752Y-86999819D01*
X87736371Y-86952200D01*
X87831609Y-86904580D01*
X88593514Y-87904580D02*
X88593514Y-86904580D01*
X88688752Y-87523628D02*
X88974466Y-87904580D01*
X88974466Y-87237914D02*
X88593514Y-87618866D01*
G04 #@! TO.C,C1*
X84654733Y-45812342D02*
X84607114Y-45859961D01*
X84464257Y-45907580D01*
X84369019Y-45907580D01*
X84226161Y-45859961D01*
X84130923Y-45764723D01*
X84083304Y-45669485D01*
X84035685Y-45479009D01*
X84035685Y-45336152D01*
X84083304Y-45145676D01*
X84130923Y-45050438D01*
X84226161Y-44955200D01*
X84369019Y-44907580D01*
X84464257Y-44907580D01*
X84607114Y-44955200D01*
X84654733Y-45002819D01*
X85607114Y-45907580D02*
X85035685Y-45907580D01*
X85321400Y-45907580D02*
X85321400Y-44907580D01*
X85226161Y-45050438D01*
X85130923Y-45145676D01*
X85035685Y-45193295D01*
X77792438Y-47442380D02*
X77221009Y-47442380D01*
X77506723Y-47442380D02*
X77506723Y-46442380D01*
X77411485Y-46585238D01*
X77316247Y-46680476D01*
X77221009Y-46728095D01*
X78411485Y-46442380D02*
X78506723Y-46442380D01*
X78601961Y-46490000D01*
X78649580Y-46537619D01*
X78697200Y-46632857D01*
X78744819Y-46823333D01*
X78744819Y-47061428D01*
X78697200Y-47251904D01*
X78649580Y-47347142D01*
X78601961Y-47394761D01*
X78506723Y-47442380D01*
X78411485Y-47442380D01*
X78316247Y-47394761D01*
X78268628Y-47347142D01*
X78221009Y-47251904D01*
X78173390Y-47061428D01*
X78173390Y-46823333D01*
X78221009Y-46632857D01*
X78268628Y-46537619D01*
X78316247Y-46490000D01*
X78411485Y-46442380D01*
X79363866Y-46442380D02*
X79459104Y-46442380D01*
X79554342Y-46490000D01*
X79601961Y-46537619D01*
X79649580Y-46632857D01*
X79697200Y-46823333D01*
X79697200Y-47061428D01*
X79649580Y-47251904D01*
X79601961Y-47347142D01*
X79554342Y-47394761D01*
X79459104Y-47442380D01*
X79363866Y-47442380D01*
X79268628Y-47394761D01*
X79221009Y-47347142D01*
X79173390Y-47251904D01*
X79125771Y-47061428D01*
X79125771Y-46823333D01*
X79173390Y-46632857D01*
X79221009Y-46537619D01*
X79268628Y-46490000D01*
X79363866Y-46442380D01*
X80125771Y-46775714D02*
X80125771Y-47442380D01*
X80125771Y-46870952D02*
X80173390Y-46823333D01*
X80268628Y-46775714D01*
X80411485Y-46775714D01*
X80506723Y-46823333D01*
X80554342Y-46918571D01*
X80554342Y-47442380D01*
X80887676Y-46775714D02*
X81268628Y-46775714D01*
X81030533Y-47442380D02*
X81030533Y-46585238D01*
X81078152Y-46490000D01*
X81173390Y-46442380D01*
X81268628Y-46442380D01*
G04 #@! TO.C,R5*
X83302928Y-75806073D02*
X82969595Y-75329883D01*
X82731499Y-75806073D02*
X82731499Y-74806073D01*
X83112452Y-74806073D01*
X83207690Y-74853693D01*
X83255309Y-74901312D01*
X83302928Y-74996550D01*
X83302928Y-75139407D01*
X83255309Y-75234645D01*
X83207690Y-75282264D01*
X83112452Y-75329883D01*
X82731499Y-75329883D01*
X84207690Y-74806073D02*
X83731499Y-74806073D01*
X83683880Y-75282264D01*
X83731499Y-75234645D01*
X83826737Y-75187026D01*
X84064833Y-75187026D01*
X84160071Y-75234645D01*
X84207690Y-75282264D01*
X84255309Y-75377502D01*
X84255309Y-75615597D01*
X84207690Y-75710835D01*
X84160071Y-75758454D01*
X84064833Y-75806073D01*
X83826737Y-75806073D01*
X83731499Y-75758454D01*
X83683880Y-75710835D01*
X83046961Y-87871073D02*
X82475533Y-87871073D01*
X82761247Y-87871073D02*
X82761247Y-86871073D01*
X82666009Y-87013931D01*
X82570771Y-87109169D01*
X82475533Y-87156788D01*
X83666009Y-86871073D02*
X83761247Y-86871073D01*
X83856485Y-86918693D01*
X83904104Y-86966312D01*
X83951723Y-87061550D01*
X83999342Y-87252026D01*
X83999342Y-87490121D01*
X83951723Y-87680597D01*
X83904104Y-87775835D01*
X83856485Y-87823454D01*
X83761247Y-87871073D01*
X83666009Y-87871073D01*
X83570771Y-87823454D01*
X83523152Y-87775835D01*
X83475533Y-87680597D01*
X83427914Y-87490121D01*
X83427914Y-87252026D01*
X83475533Y-87061550D01*
X83523152Y-86966312D01*
X83570771Y-86918693D01*
X83666009Y-86871073D01*
X84427914Y-87871073D02*
X84427914Y-86871073D01*
X84523152Y-87490121D02*
X84808866Y-87871073D01*
X84808866Y-87204407D02*
X84427914Y-87585359D01*
G04 #@! TO.C,R4*
X79309933Y-75331580D02*
X78976600Y-74855390D01*
X78738504Y-75331580D02*
X78738504Y-74331580D01*
X79119457Y-74331580D01*
X79214695Y-74379200D01*
X79262314Y-74426819D01*
X79309933Y-74522057D01*
X79309933Y-74664914D01*
X79262314Y-74760152D01*
X79214695Y-74807771D01*
X79119457Y-74855390D01*
X78738504Y-74855390D01*
X80167076Y-74664914D02*
X80167076Y-75331580D01*
X79928980Y-74283961D02*
X79690885Y-74998247D01*
X80309933Y-74998247D01*
X78881361Y-87675980D02*
X78309933Y-87675980D01*
X78595647Y-87675980D02*
X78595647Y-86675980D01*
X78500409Y-86818838D01*
X78405171Y-86914076D01*
X78309933Y-86961695D01*
X79500409Y-86675980D02*
X79595647Y-86675980D01*
X79690885Y-86723600D01*
X79738504Y-86771219D01*
X79786123Y-86866457D01*
X79833742Y-87056933D01*
X79833742Y-87295028D01*
X79786123Y-87485504D01*
X79738504Y-87580742D01*
X79690885Y-87628361D01*
X79595647Y-87675980D01*
X79500409Y-87675980D01*
X79405171Y-87628361D01*
X79357552Y-87580742D01*
X79309933Y-87485504D01*
X79262314Y-87295028D01*
X79262314Y-87056933D01*
X79309933Y-86866457D01*
X79357552Y-86771219D01*
X79405171Y-86723600D01*
X79500409Y-86675980D01*
X80262314Y-87675980D02*
X80262314Y-86675980D01*
X80357552Y-87295028D02*
X80643266Y-87675980D01*
X80643266Y-87009314D02*
X80262314Y-87390266D01*
G04 #@! TO.C,R3*
X75220533Y-75382380D02*
X74887200Y-74906190D01*
X74649104Y-75382380D02*
X74649104Y-74382380D01*
X75030057Y-74382380D01*
X75125295Y-74430000D01*
X75172914Y-74477619D01*
X75220533Y-74572857D01*
X75220533Y-74715714D01*
X75172914Y-74810952D01*
X75125295Y-74858571D01*
X75030057Y-74906190D01*
X74649104Y-74906190D01*
X75553866Y-74382380D02*
X76172914Y-74382380D01*
X75839580Y-74763333D01*
X75982438Y-74763333D01*
X76077676Y-74810952D01*
X76125295Y-74858571D01*
X76172914Y-74953809D01*
X76172914Y-75191904D01*
X76125295Y-75287142D01*
X76077676Y-75334761D01*
X75982438Y-75382380D01*
X75696723Y-75382380D01*
X75601485Y-75334761D01*
X75553866Y-75287142D01*
X74537961Y-87675980D02*
X73966533Y-87675980D01*
X74252247Y-87675980D02*
X74252247Y-86675980D01*
X74157009Y-86818838D01*
X74061771Y-86914076D01*
X73966533Y-86961695D01*
X75157009Y-86675980D02*
X75252247Y-86675980D01*
X75347485Y-86723600D01*
X75395104Y-86771219D01*
X75442723Y-86866457D01*
X75490342Y-87056933D01*
X75490342Y-87295028D01*
X75442723Y-87485504D01*
X75395104Y-87580742D01*
X75347485Y-87628361D01*
X75252247Y-87675980D01*
X75157009Y-87675980D01*
X75061771Y-87628361D01*
X75014152Y-87580742D01*
X74966533Y-87485504D01*
X74918914Y-87295028D01*
X74918914Y-87056933D01*
X74966533Y-86866457D01*
X75014152Y-86771219D01*
X75061771Y-86723600D01*
X75157009Y-86675980D01*
X75918914Y-87675980D02*
X75918914Y-86675980D01*
X76014152Y-87295028D02*
X76299866Y-87675980D01*
X76299866Y-87009314D02*
X75918914Y-87390266D01*
G04 #@! TO.C,R2*
X70724733Y-75331580D02*
X70391400Y-74855390D01*
X70153304Y-75331580D02*
X70153304Y-74331580D01*
X70534257Y-74331580D01*
X70629495Y-74379200D01*
X70677114Y-74426819D01*
X70724733Y-74522057D01*
X70724733Y-74664914D01*
X70677114Y-74760152D01*
X70629495Y-74807771D01*
X70534257Y-74855390D01*
X70153304Y-74855390D01*
X71105685Y-74426819D02*
X71153304Y-74379200D01*
X71248542Y-74331580D01*
X71486638Y-74331580D01*
X71581876Y-74379200D01*
X71629495Y-74426819D01*
X71677114Y-74522057D01*
X71677114Y-74617295D01*
X71629495Y-74760152D01*
X71058066Y-75331580D01*
X71677114Y-75331580D01*
X70804161Y-87777580D02*
X70232733Y-87777580D01*
X70518447Y-87777580D02*
X70518447Y-86777580D01*
X70423209Y-86920438D01*
X70327971Y-87015676D01*
X70232733Y-87063295D01*
X71423209Y-86777580D02*
X71518447Y-86777580D01*
X71613685Y-86825200D01*
X71661304Y-86872819D01*
X71708923Y-86968057D01*
X71756542Y-87158533D01*
X71756542Y-87396628D01*
X71708923Y-87587104D01*
X71661304Y-87682342D01*
X71613685Y-87729961D01*
X71518447Y-87777580D01*
X71423209Y-87777580D01*
X71327971Y-87729961D01*
X71280352Y-87682342D01*
X71232733Y-87587104D01*
X71185114Y-87396628D01*
X71185114Y-87158533D01*
X71232733Y-86968057D01*
X71280352Y-86872819D01*
X71327971Y-86825200D01*
X71423209Y-86777580D01*
X72185114Y-87777580D02*
X72185114Y-86777580D01*
X72280352Y-87396628D02*
X72566066Y-87777580D01*
X72566066Y-87110914D02*
X72185114Y-87491866D01*
G04 #@! TO.C,R1*
X66838533Y-75433180D02*
X66505200Y-74956990D01*
X66267104Y-75433180D02*
X66267104Y-74433180D01*
X66648057Y-74433180D01*
X66743295Y-74480800D01*
X66790914Y-74528419D01*
X66838533Y-74623657D01*
X66838533Y-74766514D01*
X66790914Y-74861752D01*
X66743295Y-74909371D01*
X66648057Y-74956990D01*
X66267104Y-74956990D01*
X67790914Y-75433180D02*
X67219485Y-75433180D01*
X67505200Y-75433180D02*
X67505200Y-74433180D01*
X67409961Y-74576038D01*
X67314723Y-74671276D01*
X67219485Y-74718895D01*
X66511561Y-87726780D02*
X65940133Y-87726780D01*
X66225847Y-87726780D02*
X66225847Y-86726780D01*
X66130609Y-86869638D01*
X66035371Y-86964876D01*
X65940133Y-87012495D01*
X67130609Y-86726780D02*
X67225847Y-86726780D01*
X67321085Y-86774400D01*
X67368704Y-86822019D01*
X67416323Y-86917257D01*
X67463942Y-87107733D01*
X67463942Y-87345828D01*
X67416323Y-87536304D01*
X67368704Y-87631542D01*
X67321085Y-87679161D01*
X67225847Y-87726780D01*
X67130609Y-87726780D01*
X67035371Y-87679161D01*
X66987752Y-87631542D01*
X66940133Y-87536304D01*
X66892514Y-87345828D01*
X66892514Y-87107733D01*
X66940133Y-86917257D01*
X66987752Y-86822019D01*
X67035371Y-86774400D01*
X67130609Y-86726780D01*
X67892514Y-87726780D02*
X67892514Y-86726780D01*
X67987752Y-87345828D02*
X68273466Y-87726780D01*
X68273466Y-87060114D02*
X67892514Y-87441066D01*
G04 #@! TO.C,J1*
X124318780Y-53266933D02*
X125033066Y-53266933D01*
X125175923Y-53314552D01*
X125271161Y-53409790D01*
X125318780Y-53552647D01*
X125318780Y-53647885D01*
X125318780Y-52266933D02*
X125318780Y-52838361D01*
X125318780Y-52552647D02*
X124318780Y-52552647D01*
X124461638Y-52647885D01*
X124556876Y-52743123D01*
X124604495Y-52838361D01*
G04 #@! TO.C,SW1*
X69913666Y-72252361D02*
X70056523Y-72299980D01*
X70294619Y-72299980D01*
X70389857Y-72252361D01*
X70437476Y-72204742D01*
X70485095Y-72109504D01*
X70485095Y-72014266D01*
X70437476Y-71919028D01*
X70389857Y-71871409D01*
X70294619Y-71823790D01*
X70104142Y-71776171D01*
X70008904Y-71728552D01*
X69961285Y-71680933D01*
X69913666Y-71585695D01*
X69913666Y-71490457D01*
X69961285Y-71395219D01*
X70008904Y-71347600D01*
X70104142Y-71299980D01*
X70342238Y-71299980D01*
X70485095Y-71347600D01*
X70818428Y-71299980D02*
X71056523Y-72299980D01*
X71247000Y-71585695D01*
X71437476Y-72299980D01*
X71675571Y-71299980D01*
X72580333Y-72299980D02*
X72008904Y-72299980D01*
X72294619Y-72299980D02*
X72294619Y-71299980D01*
X72199380Y-71442838D01*
X72104142Y-71538076D01*
X72008904Y-71585695D01*
G04 #@! TO.C,U1*
X100812695Y-45966580D02*
X100812695Y-46776104D01*
X100860314Y-46871342D01*
X100907933Y-46918961D01*
X101003171Y-46966580D01*
X101193647Y-46966580D01*
X101288885Y-46918961D01*
X101336504Y-46871342D01*
X101384123Y-46776104D01*
X101384123Y-45966580D01*
X102384123Y-46966580D02*
X101812695Y-46966580D01*
X102098409Y-46966580D02*
X102098409Y-45966580D01*
X102003171Y-46109438D01*
X101907933Y-46204676D01*
X101812695Y-46252295D01*
G04 #@! TO.C,JP1*
X90073266Y-66686180D02*
X90073266Y-67400466D01*
X90025647Y-67543323D01*
X89930409Y-67638561D01*
X89787552Y-67686180D01*
X89692314Y-67686180D01*
X90549457Y-67686180D02*
X90549457Y-66686180D01*
X90930409Y-66686180D01*
X91025647Y-66733800D01*
X91073266Y-66781419D01*
X91120885Y-66876657D01*
X91120885Y-67019514D01*
X91073266Y-67114752D01*
X91025647Y-67162371D01*
X90930409Y-67209990D01*
X90549457Y-67209990D01*
X92073266Y-67686180D02*
X91501838Y-67686180D01*
X91787552Y-67686180D02*
X91787552Y-66686180D01*
X91692314Y-66829038D01*
X91597076Y-66924276D01*
X91501838Y-66971895D01*
X86625276Y-70692580D02*
X87244323Y-70692580D01*
X86910990Y-71073533D01*
X87053847Y-71073533D01*
X87149085Y-71121152D01*
X87196704Y-71168771D01*
X87244323Y-71264009D01*
X87244323Y-71502104D01*
X87196704Y-71597342D01*
X87149085Y-71644961D01*
X87053847Y-71692580D01*
X86768133Y-71692580D01*
X86672895Y-71644961D01*
X86625276Y-71597342D01*
X87625276Y-70787819D02*
X87672895Y-70740200D01*
X87768133Y-70692580D01*
X88006228Y-70692580D01*
X88101466Y-70740200D01*
X88149085Y-70787819D01*
X88196704Y-70883057D01*
X88196704Y-70978295D01*
X88149085Y-71121152D01*
X87577657Y-71692580D01*
X88196704Y-71692580D01*
X88625276Y-71692580D02*
X88625276Y-70692580D01*
X89196704Y-71692580D02*
X88768133Y-71121152D01*
X89196704Y-70692580D02*
X88625276Y-71264009D01*
G04 #@! TO.C,JP2*
X78668666Y-67016380D02*
X78668666Y-67730666D01*
X78621047Y-67873523D01*
X78525809Y-67968761D01*
X78382952Y-68016380D01*
X78287714Y-68016380D01*
X79144857Y-68016380D02*
X79144857Y-67016380D01*
X79525809Y-67016380D01*
X79621047Y-67064000D01*
X79668666Y-67111619D01*
X79716285Y-67206857D01*
X79716285Y-67349714D01*
X79668666Y-67444952D01*
X79621047Y-67492571D01*
X79525809Y-67540190D01*
X79144857Y-67540190D01*
X80097238Y-67111619D02*
X80144857Y-67064000D01*
X80240095Y-67016380D01*
X80478190Y-67016380D01*
X80573428Y-67064000D01*
X80621047Y-67111619D01*
X80668666Y-67206857D01*
X80668666Y-67302095D01*
X80621047Y-67444952D01*
X80049619Y-68016380D01*
X80668666Y-68016380D01*
X82157961Y-71197352D02*
X82062723Y-71149733D01*
X82015104Y-71102114D01*
X81967485Y-71006876D01*
X81967485Y-70959257D01*
X82015104Y-70864019D01*
X82062723Y-70816400D01*
X82157961Y-70768780D01*
X82348438Y-70768780D01*
X82443676Y-70816400D01*
X82491295Y-70864019D01*
X82538914Y-70959257D01*
X82538914Y-71006876D01*
X82491295Y-71102114D01*
X82443676Y-71149733D01*
X82348438Y-71197352D01*
X82157961Y-71197352D01*
X82062723Y-71244971D01*
X82015104Y-71292590D01*
X81967485Y-71387828D01*
X81967485Y-71578304D01*
X82015104Y-71673542D01*
X82062723Y-71721161D01*
X82157961Y-71768780D01*
X82348438Y-71768780D01*
X82443676Y-71721161D01*
X82491295Y-71673542D01*
X82538914Y-71578304D01*
X82538914Y-71387828D01*
X82491295Y-71292590D01*
X82443676Y-71244971D01*
X82348438Y-71197352D01*
X82967485Y-71768780D02*
X82967485Y-70768780D01*
X83538914Y-71768780D02*
X83110342Y-71197352D01*
X83538914Y-70768780D02*
X82967485Y-71340209D01*
G04 #@! TO.C,JP3*
X89997066Y-56932580D02*
X89997066Y-57646866D01*
X89949447Y-57789723D01*
X89854209Y-57884961D01*
X89711352Y-57932580D01*
X89616114Y-57932580D01*
X90473257Y-57932580D02*
X90473257Y-56932580D01*
X90854209Y-56932580D01*
X90949447Y-56980200D01*
X90997066Y-57027819D01*
X91044685Y-57123057D01*
X91044685Y-57265914D01*
X90997066Y-57361152D01*
X90949447Y-57408771D01*
X90854209Y-57456390D01*
X90473257Y-57456390D01*
X91378019Y-56932580D02*
X91997066Y-56932580D01*
X91663733Y-57313533D01*
X91806590Y-57313533D01*
X91901828Y-57361152D01*
X91949447Y-57408771D01*
X91997066Y-57504009D01*
X91997066Y-57742104D01*
X91949447Y-57837342D01*
X91901828Y-57884961D01*
X91806590Y-57932580D01*
X91520876Y-57932580D01*
X91425638Y-57884961D01*
X91378019Y-57837342D01*
X86828476Y-54907380D02*
X87447523Y-54907380D01*
X87114190Y-55288333D01*
X87257047Y-55288333D01*
X87352285Y-55335952D01*
X87399904Y-55383571D01*
X87447523Y-55478809D01*
X87447523Y-55716904D01*
X87399904Y-55812142D01*
X87352285Y-55859761D01*
X87257047Y-55907380D01*
X86971333Y-55907380D01*
X86876095Y-55859761D01*
X86828476Y-55812142D01*
X87828476Y-55002619D02*
X87876095Y-54955000D01*
X87971333Y-54907380D01*
X88209428Y-54907380D01*
X88304666Y-54955000D01*
X88352285Y-55002619D01*
X88399904Y-55097857D01*
X88399904Y-55193095D01*
X88352285Y-55335952D01*
X87780857Y-55907380D01*
X88399904Y-55907380D01*
X88828476Y-55907380D02*
X88828476Y-54907380D01*
X89399904Y-55907380D02*
X88971333Y-55335952D01*
X89399904Y-54907380D02*
X88828476Y-55478809D01*
G04 #@! TO.C,JP4*
X78465466Y-58380380D02*
X78465466Y-59094666D01*
X78417847Y-59237523D01*
X78322609Y-59332761D01*
X78179752Y-59380380D01*
X78084514Y-59380380D01*
X78941657Y-59380380D02*
X78941657Y-58380380D01*
X79322609Y-58380380D01*
X79417847Y-58428000D01*
X79465466Y-58475619D01*
X79513085Y-58570857D01*
X79513085Y-58713714D01*
X79465466Y-58808952D01*
X79417847Y-58856571D01*
X79322609Y-58904190D01*
X78941657Y-58904190D01*
X80370228Y-58713714D02*
X80370228Y-59380380D01*
X80132133Y-58332761D02*
X79894038Y-59047047D01*
X80513085Y-59047047D01*
X82030961Y-55462952D02*
X81935723Y-55415333D01*
X81888104Y-55367714D01*
X81840485Y-55272476D01*
X81840485Y-55224857D01*
X81888104Y-55129619D01*
X81935723Y-55082000D01*
X82030961Y-55034380D01*
X82221438Y-55034380D01*
X82316676Y-55082000D01*
X82364295Y-55129619D01*
X82411914Y-55224857D01*
X82411914Y-55272476D01*
X82364295Y-55367714D01*
X82316676Y-55415333D01*
X82221438Y-55462952D01*
X82030961Y-55462952D01*
X81935723Y-55510571D01*
X81888104Y-55558190D01*
X81840485Y-55653428D01*
X81840485Y-55843904D01*
X81888104Y-55939142D01*
X81935723Y-55986761D01*
X82030961Y-56034380D01*
X82221438Y-56034380D01*
X82316676Y-55986761D01*
X82364295Y-55939142D01*
X82411914Y-55843904D01*
X82411914Y-55653428D01*
X82364295Y-55558190D01*
X82316676Y-55510571D01*
X82221438Y-55462952D01*
X82840485Y-56034380D02*
X82840485Y-55034380D01*
X83411914Y-56034380D02*
X82983342Y-55462952D01*
X83411914Y-55034380D02*
X82840485Y-55605809D01*
G04 #@! TD*
M02*
