M48
INCH,TZ
T1C0.0157
T2C0.0315
T3C0.0394
%
G90
G05
T1
X33970Y-34580
X35920Y-23750
X38583Y-19787
X40910Y-34190
X41620Y-33365
X48230Y-31230
X48700Y-31230
X49130Y-31230
T2
X26350Y-30460
X26350Y-33460
X26550Y-19940
X26550Y-20940
X26550Y-21940
X26550Y-22940
X26550Y-23940
X26550Y-24940
X26550Y-25940
X26550Y-26940
X28000Y-30440
X28000Y-33440
X29550Y-19940
X29550Y-20940
X29550Y-21940
X29550Y-22940
X29550Y-23940
X29550Y-24940
X29550Y-25940
X29550Y-26940
X29620Y-30440
X29620Y-33440
X31290Y-30440
X31290Y-33440
X32410Y-18880
X32940Y-30470
X32940Y-33470
X34379Y-18880
X34660Y-30440
X34660Y-33440
X36990Y-19230
X36990Y-20230
X36990Y-21230
X36990Y-22230
X36990Y-23230
X36990Y-24230
X36990Y-25230
X36990Y-26230
X36990Y-27230
X36990Y-28230
X36990Y-29230
X36990Y-30230
X36990Y-31230
X36990Y-32230
X36990Y-33230
X36990Y-34230
X42990Y-19230
X42990Y-20230
X42990Y-21230
X42990Y-22230
X42990Y-23230
X42990Y-24230
X42990Y-25230
X42990Y-26230
X42990Y-27230
X42990Y-28230
X42990Y-29230
X42990Y-30230
X42990Y-31230
X42990Y-32230
X42990Y-33230
X42990Y-34230
T3
X32530Y-22800
X32530Y-23800
X32580Y-26160
X32580Y-27160
X34620Y-26130
X34620Y-27130
X34700Y-22750
X34700Y-23750
T0
M30
