G04 #@! TF.GenerationSoftware,KiCad,Pcbnew,5.0.2+dfsg1-1~bpo9+1*
G04 #@! TF.CreationDate,2019-09-01T17:00:00+01:00*
G04 #@! TF.ProjectId,multicart,6d756c74-6963-4617-9274-2e6b69636164,V0.1*
G04 #@! TF.SameCoordinates,Original*
G04 #@! TF.FileFunction,Copper,L2,Bot*
G04 #@! TF.FilePolarity,Positive*
%FSLAX46Y46*%
G04 Gerber Fmt 4.6, Leading zero omitted, Abs format (unit mm)*
G04 Created by KiCad (PCBNEW 5.0.2+dfsg1-1~bpo9+1) date Sun 01 Sep 2019 17:00:00 BST*
%MOMM*%
%LPD*%
G01*
G04 APERTURE LIST*
G04 #@! TA.AperFunction,ComponentPad*
%ADD10O,1.600000X1.600000*%
G04 #@! TD*
G04 #@! TA.AperFunction,ComponentPad*
%ADD11C,1.600000*%
G04 #@! TD*
G04 #@! TA.AperFunction,Conductor*
%ADD12C,0.100000*%
G04 #@! TD*
G04 #@! TA.AperFunction,ConnectorPad*
%ADD13C,1.600000*%
G04 #@! TD*
G04 #@! TA.AperFunction,ComponentPad*
%ADD14R,1.600000X1.600000*%
G04 #@! TD*
G04 #@! TA.AperFunction,ComponentPad*
%ADD15O,2.400000X1.600000*%
G04 #@! TD*
G04 #@! TA.AperFunction,ComponentPad*
%ADD16R,2.400000X1.600000*%
G04 #@! TD*
G04 #@! TA.AperFunction,ComponentPad*
%ADD17O,1.700000X1.700000*%
G04 #@! TD*
G04 #@! TA.AperFunction,ComponentPad*
%ADD18R,1.700000X1.700000*%
G04 #@! TD*
G04 #@! TA.AperFunction,ViaPad*
%ADD19C,0.800000*%
G04 #@! TD*
G04 #@! TA.AperFunction,Conductor*
%ADD20C,0.250000*%
G04 #@! TD*
G04 #@! TA.AperFunction,Conductor*
%ADD21C,0.254000*%
G04 #@! TD*
G04 APERTURE END LIST*
D10*
G04 #@! TO.P,R6,2*
G04 #@! TO.N,GND*
X88036400Y-84937600D03*
D11*
G04 #@! TO.P,R6,1*
G04 #@! TO.N,Net-(R6-Pad1)*
X88036400Y-77317600D03*
G04 #@! TD*
G04 #@! TO.P,C1,2*
G04 #@! TO.N,VCC*
X87321400Y-47955200D03*
G04 #@! TO.P,C1,1*
G04 #@! TO.N,GND*
X82321400Y-47955200D03*
G04 #@! TD*
D10*
G04 #@! TO.P,R5,2*
G04 #@! TO.N,GND*
X83667600Y-85013800D03*
D11*
G04 #@! TO.P,R5,1*
G04 #@! TO.N,Net-(JP2-Pad1)*
X83667600Y-77393800D03*
G04 #@! TD*
D10*
G04 #@! TO.P,R4,2*
G04 #@! TO.N,GND*
X79476600Y-84937600D03*
D11*
G04 #@! TO.P,R4,1*
G04 #@! TO.N,Net-(JP4-Pad1)*
X79476600Y-77317600D03*
G04 #@! TD*
D10*
G04 #@! TO.P,R3,2*
G04 #@! TO.N,GND*
X75234800Y-84937600D03*
D11*
G04 #@! TO.P,R3,1*
G04 #@! TO.N,Net-(R3-Pad1)*
X75234800Y-77317600D03*
G04 #@! TD*
D10*
G04 #@! TO.P,R2,2*
G04 #@! TO.N,GND*
X71120000Y-84937600D03*
D11*
G04 #@! TO.P,R2,1*
G04 #@! TO.N,Net-(R2-Pad1)*
X71120000Y-77317600D03*
G04 #@! TD*
D10*
G04 #@! TO.P,R1,2*
G04 #@! TO.N,GND*
X66929000Y-84988400D03*
D11*
G04 #@! TO.P,R1,1*
G04 #@! TO.N,Net-(R1-Pad1)*
X66929000Y-77368400D03*
G04 #@! TD*
D12*
G04 #@! TO.N,PORTB*
G04 #@! TO.C,J1*
G36*
X135449407Y-88782126D02*
X135488236Y-88787886D01*
X135526314Y-88797424D01*
X135563273Y-88810648D01*
X135598759Y-88827431D01*
X135632428Y-88847612D01*
X135663957Y-88870996D01*
X135693043Y-88897357D01*
X135719404Y-88926443D01*
X135742788Y-88957972D01*
X135762969Y-88991641D01*
X135779752Y-89027127D01*
X135792976Y-89064086D01*
X135802514Y-89102164D01*
X135808274Y-89140993D01*
X135810200Y-89180200D01*
X135810200Y-89980200D01*
X135808274Y-90019407D01*
X135802514Y-90058236D01*
X135792976Y-90096314D01*
X135779752Y-90133273D01*
X135762969Y-90168759D01*
X135742788Y-90202428D01*
X135719404Y-90233957D01*
X135693043Y-90263043D01*
X135663957Y-90289404D01*
X135632428Y-90312788D01*
X135598759Y-90332969D01*
X135563273Y-90349752D01*
X135526314Y-90362976D01*
X135488236Y-90372514D01*
X135449407Y-90378274D01*
X135410200Y-90380200D01*
X126210200Y-90380200D01*
X126170993Y-90378274D01*
X126132164Y-90372514D01*
X126094086Y-90362976D01*
X126057127Y-90349752D01*
X126021641Y-90332969D01*
X125987972Y-90312788D01*
X125956443Y-90289404D01*
X125927357Y-90263043D01*
X125900996Y-90233957D01*
X125877612Y-90202428D01*
X125857431Y-90168759D01*
X125840648Y-90133273D01*
X125827424Y-90096314D01*
X125817886Y-90058236D01*
X125812126Y-90019407D01*
X125810200Y-89980200D01*
X125810200Y-89180200D01*
X125812126Y-89140993D01*
X125817886Y-89102164D01*
X125827424Y-89064086D01*
X125840648Y-89027127D01*
X125857431Y-88991641D01*
X125877612Y-88957972D01*
X125900996Y-88926443D01*
X125927357Y-88897357D01*
X125956443Y-88870996D01*
X125987972Y-88847612D01*
X126021641Y-88827431D01*
X126057127Y-88810648D01*
X126094086Y-88797424D01*
X126132164Y-88787886D01*
X126170993Y-88782126D01*
X126210200Y-88780200D01*
X135410200Y-88780200D01*
X135449407Y-88782126D01*
X135449407Y-88782126D01*
G37*
D13*
G04 #@! TD*
G04 #@! TO.P,J1,35*
G04 #@! TO.N,PORTB*
X130810200Y-89580200D03*
D12*
G04 #@! TO.N,A14*
G04 #@! TO.C,J1*
G36*
X135449407Y-86242126D02*
X135488236Y-86247886D01*
X135526314Y-86257424D01*
X135563273Y-86270648D01*
X135598759Y-86287431D01*
X135632428Y-86307612D01*
X135663957Y-86330996D01*
X135693043Y-86357357D01*
X135719404Y-86386443D01*
X135742788Y-86417972D01*
X135762969Y-86451641D01*
X135779752Y-86487127D01*
X135792976Y-86524086D01*
X135802514Y-86562164D01*
X135808274Y-86600993D01*
X135810200Y-86640200D01*
X135810200Y-87440200D01*
X135808274Y-87479407D01*
X135802514Y-87518236D01*
X135792976Y-87556314D01*
X135779752Y-87593273D01*
X135762969Y-87628759D01*
X135742788Y-87662428D01*
X135719404Y-87693957D01*
X135693043Y-87723043D01*
X135663957Y-87749404D01*
X135632428Y-87772788D01*
X135598759Y-87792969D01*
X135563273Y-87809752D01*
X135526314Y-87822976D01*
X135488236Y-87832514D01*
X135449407Y-87838274D01*
X135410200Y-87840200D01*
X126210200Y-87840200D01*
X126170993Y-87838274D01*
X126132164Y-87832514D01*
X126094086Y-87822976D01*
X126057127Y-87809752D01*
X126021641Y-87792969D01*
X125987972Y-87772788D01*
X125956443Y-87749404D01*
X125927357Y-87723043D01*
X125900996Y-87693957D01*
X125877612Y-87662428D01*
X125857431Y-87628759D01*
X125840648Y-87593273D01*
X125827424Y-87556314D01*
X125817886Y-87518236D01*
X125812126Y-87479407D01*
X125810200Y-87440200D01*
X125810200Y-86640200D01*
X125812126Y-86600993D01*
X125817886Y-86562164D01*
X125827424Y-86524086D01*
X125840648Y-86487127D01*
X125857431Y-86451641D01*
X125877612Y-86417972D01*
X125900996Y-86386443D01*
X125927357Y-86357357D01*
X125956443Y-86330996D01*
X125987972Y-86307612D01*
X126021641Y-86287431D01*
X126057127Y-86270648D01*
X126094086Y-86257424D01*
X126132164Y-86247886D01*
X126170993Y-86242126D01*
X126210200Y-86240200D01*
X135410200Y-86240200D01*
X135449407Y-86242126D01*
X135449407Y-86242126D01*
G37*
D13*
G04 #@! TD*
G04 #@! TO.P,J1,33*
G04 #@! TO.N,A14*
X130810200Y-87040200D03*
D12*
G04 #@! TO.N,A13*
G04 #@! TO.C,J1*
G36*
X135449407Y-83702126D02*
X135488236Y-83707886D01*
X135526314Y-83717424D01*
X135563273Y-83730648D01*
X135598759Y-83747431D01*
X135632428Y-83767612D01*
X135663957Y-83790996D01*
X135693043Y-83817357D01*
X135719404Y-83846443D01*
X135742788Y-83877972D01*
X135762969Y-83911641D01*
X135779752Y-83947127D01*
X135792976Y-83984086D01*
X135802514Y-84022164D01*
X135808274Y-84060993D01*
X135810200Y-84100200D01*
X135810200Y-84900200D01*
X135808274Y-84939407D01*
X135802514Y-84978236D01*
X135792976Y-85016314D01*
X135779752Y-85053273D01*
X135762969Y-85088759D01*
X135742788Y-85122428D01*
X135719404Y-85153957D01*
X135693043Y-85183043D01*
X135663957Y-85209404D01*
X135632428Y-85232788D01*
X135598759Y-85252969D01*
X135563273Y-85269752D01*
X135526314Y-85282976D01*
X135488236Y-85292514D01*
X135449407Y-85298274D01*
X135410200Y-85300200D01*
X126210200Y-85300200D01*
X126170993Y-85298274D01*
X126132164Y-85292514D01*
X126094086Y-85282976D01*
X126057127Y-85269752D01*
X126021641Y-85252969D01*
X125987972Y-85232788D01*
X125956443Y-85209404D01*
X125927357Y-85183043D01*
X125900996Y-85153957D01*
X125877612Y-85122428D01*
X125857431Y-85088759D01*
X125840648Y-85053273D01*
X125827424Y-85016314D01*
X125817886Y-84978236D01*
X125812126Y-84939407D01*
X125810200Y-84900200D01*
X125810200Y-84100200D01*
X125812126Y-84060993D01*
X125817886Y-84022164D01*
X125827424Y-83984086D01*
X125840648Y-83947127D01*
X125857431Y-83911641D01*
X125877612Y-83877972D01*
X125900996Y-83846443D01*
X125927357Y-83817357D01*
X125956443Y-83790996D01*
X125987972Y-83767612D01*
X126021641Y-83747431D01*
X126057127Y-83730648D01*
X126094086Y-83717424D01*
X126132164Y-83707886D01*
X126170993Y-83702126D01*
X126210200Y-83700200D01*
X135410200Y-83700200D01*
X135449407Y-83702126D01*
X135449407Y-83702126D01*
G37*
D13*
G04 #@! TD*
G04 #@! TO.P,J1,31*
G04 #@! TO.N,A13*
X130810200Y-84500200D03*
D12*
G04 #@! TO.N,A12*
G04 #@! TO.C,J1*
G36*
X135449407Y-81162126D02*
X135488236Y-81167886D01*
X135526314Y-81177424D01*
X135563273Y-81190648D01*
X135598759Y-81207431D01*
X135632428Y-81227612D01*
X135663957Y-81250996D01*
X135693043Y-81277357D01*
X135719404Y-81306443D01*
X135742788Y-81337972D01*
X135762969Y-81371641D01*
X135779752Y-81407127D01*
X135792976Y-81444086D01*
X135802514Y-81482164D01*
X135808274Y-81520993D01*
X135810200Y-81560200D01*
X135810200Y-82360200D01*
X135808274Y-82399407D01*
X135802514Y-82438236D01*
X135792976Y-82476314D01*
X135779752Y-82513273D01*
X135762969Y-82548759D01*
X135742788Y-82582428D01*
X135719404Y-82613957D01*
X135693043Y-82643043D01*
X135663957Y-82669404D01*
X135632428Y-82692788D01*
X135598759Y-82712969D01*
X135563273Y-82729752D01*
X135526314Y-82742976D01*
X135488236Y-82752514D01*
X135449407Y-82758274D01*
X135410200Y-82760200D01*
X126210200Y-82760200D01*
X126170993Y-82758274D01*
X126132164Y-82752514D01*
X126094086Y-82742976D01*
X126057127Y-82729752D01*
X126021641Y-82712969D01*
X125987972Y-82692788D01*
X125956443Y-82669404D01*
X125927357Y-82643043D01*
X125900996Y-82613957D01*
X125877612Y-82582428D01*
X125857431Y-82548759D01*
X125840648Y-82513273D01*
X125827424Y-82476314D01*
X125817886Y-82438236D01*
X125812126Y-82399407D01*
X125810200Y-82360200D01*
X125810200Y-81560200D01*
X125812126Y-81520993D01*
X125817886Y-81482164D01*
X125827424Y-81444086D01*
X125840648Y-81407127D01*
X125857431Y-81371641D01*
X125877612Y-81337972D01*
X125900996Y-81306443D01*
X125927357Y-81277357D01*
X125956443Y-81250996D01*
X125987972Y-81227612D01*
X126021641Y-81207431D01*
X126057127Y-81190648D01*
X126094086Y-81177424D01*
X126132164Y-81167886D01*
X126170993Y-81162126D01*
X126210200Y-81160200D01*
X135410200Y-81160200D01*
X135449407Y-81162126D01*
X135449407Y-81162126D01*
G37*
D13*
G04 #@! TD*
G04 #@! TO.P,J1,29*
G04 #@! TO.N,A12*
X130810200Y-81960200D03*
D12*
G04 #@! TO.N,GND*
G04 #@! TO.C,J1*
G36*
X135449407Y-78622126D02*
X135488236Y-78627886D01*
X135526314Y-78637424D01*
X135563273Y-78650648D01*
X135598759Y-78667431D01*
X135632428Y-78687612D01*
X135663957Y-78710996D01*
X135693043Y-78737357D01*
X135719404Y-78766443D01*
X135742788Y-78797972D01*
X135762969Y-78831641D01*
X135779752Y-78867127D01*
X135792976Y-78904086D01*
X135802514Y-78942164D01*
X135808274Y-78980993D01*
X135810200Y-79020200D01*
X135810200Y-79820200D01*
X135808274Y-79859407D01*
X135802514Y-79898236D01*
X135792976Y-79936314D01*
X135779752Y-79973273D01*
X135762969Y-80008759D01*
X135742788Y-80042428D01*
X135719404Y-80073957D01*
X135693043Y-80103043D01*
X135663957Y-80129404D01*
X135632428Y-80152788D01*
X135598759Y-80172969D01*
X135563273Y-80189752D01*
X135526314Y-80202976D01*
X135488236Y-80212514D01*
X135449407Y-80218274D01*
X135410200Y-80220200D01*
X126210200Y-80220200D01*
X126170993Y-80218274D01*
X126132164Y-80212514D01*
X126094086Y-80202976D01*
X126057127Y-80189752D01*
X126021641Y-80172969D01*
X125987972Y-80152788D01*
X125956443Y-80129404D01*
X125927357Y-80103043D01*
X125900996Y-80073957D01*
X125877612Y-80042428D01*
X125857431Y-80008759D01*
X125840648Y-79973273D01*
X125827424Y-79936314D01*
X125817886Y-79898236D01*
X125812126Y-79859407D01*
X125810200Y-79820200D01*
X125810200Y-79020200D01*
X125812126Y-78980993D01*
X125817886Y-78942164D01*
X125827424Y-78904086D01*
X125840648Y-78867127D01*
X125857431Y-78831641D01*
X125877612Y-78797972D01*
X125900996Y-78766443D01*
X125927357Y-78737357D01*
X125956443Y-78710996D01*
X125987972Y-78687612D01*
X126021641Y-78667431D01*
X126057127Y-78650648D01*
X126094086Y-78637424D01*
X126132164Y-78627886D01*
X126170993Y-78622126D01*
X126210200Y-78620200D01*
X135410200Y-78620200D01*
X135449407Y-78622126D01*
X135449407Y-78622126D01*
G37*
D13*
G04 #@! TD*
G04 #@! TO.P,J1,27*
G04 #@! TO.N,GND*
X130810200Y-79420200D03*
D12*
G04 #@! TO.N,GND*
G04 #@! TO.C,J1*
G36*
X135449407Y-76082126D02*
X135488236Y-76087886D01*
X135526314Y-76097424D01*
X135563273Y-76110648D01*
X135598759Y-76127431D01*
X135632428Y-76147612D01*
X135663957Y-76170996D01*
X135693043Y-76197357D01*
X135719404Y-76226443D01*
X135742788Y-76257972D01*
X135762969Y-76291641D01*
X135779752Y-76327127D01*
X135792976Y-76364086D01*
X135802514Y-76402164D01*
X135808274Y-76440993D01*
X135810200Y-76480200D01*
X135810200Y-77280200D01*
X135808274Y-77319407D01*
X135802514Y-77358236D01*
X135792976Y-77396314D01*
X135779752Y-77433273D01*
X135762969Y-77468759D01*
X135742788Y-77502428D01*
X135719404Y-77533957D01*
X135693043Y-77563043D01*
X135663957Y-77589404D01*
X135632428Y-77612788D01*
X135598759Y-77632969D01*
X135563273Y-77649752D01*
X135526314Y-77662976D01*
X135488236Y-77672514D01*
X135449407Y-77678274D01*
X135410200Y-77680200D01*
X126210200Y-77680200D01*
X126170993Y-77678274D01*
X126132164Y-77672514D01*
X126094086Y-77662976D01*
X126057127Y-77649752D01*
X126021641Y-77632969D01*
X125987972Y-77612788D01*
X125956443Y-77589404D01*
X125927357Y-77563043D01*
X125900996Y-77533957D01*
X125877612Y-77502428D01*
X125857431Y-77468759D01*
X125840648Y-77433273D01*
X125827424Y-77396314D01*
X125817886Y-77358236D01*
X125812126Y-77319407D01*
X125810200Y-77280200D01*
X125810200Y-76480200D01*
X125812126Y-76440993D01*
X125817886Y-76402164D01*
X125827424Y-76364086D01*
X125840648Y-76327127D01*
X125857431Y-76291641D01*
X125877612Y-76257972D01*
X125900996Y-76226443D01*
X125927357Y-76197357D01*
X125956443Y-76170996D01*
X125987972Y-76147612D01*
X126021641Y-76127431D01*
X126057127Y-76110648D01*
X126094086Y-76097424D01*
X126132164Y-76087886D01*
X126170993Y-76082126D01*
X126210200Y-76080200D01*
X135410200Y-76080200D01*
X135449407Y-76082126D01*
X135449407Y-76082126D01*
G37*
D13*
G04 #@! TD*
G04 #@! TO.P,J1,25*
G04 #@! TO.N,GND*
X130810200Y-76880200D03*
D12*
G04 #@! TO.N,D2*
G04 #@! TO.C,J1*
G36*
X135449407Y-73542126D02*
X135488236Y-73547886D01*
X135526314Y-73557424D01*
X135563273Y-73570648D01*
X135598759Y-73587431D01*
X135632428Y-73607612D01*
X135663957Y-73630996D01*
X135693043Y-73657357D01*
X135719404Y-73686443D01*
X135742788Y-73717972D01*
X135762969Y-73751641D01*
X135779752Y-73787127D01*
X135792976Y-73824086D01*
X135802514Y-73862164D01*
X135808274Y-73900993D01*
X135810200Y-73940200D01*
X135810200Y-74740200D01*
X135808274Y-74779407D01*
X135802514Y-74818236D01*
X135792976Y-74856314D01*
X135779752Y-74893273D01*
X135762969Y-74928759D01*
X135742788Y-74962428D01*
X135719404Y-74993957D01*
X135693043Y-75023043D01*
X135663957Y-75049404D01*
X135632428Y-75072788D01*
X135598759Y-75092969D01*
X135563273Y-75109752D01*
X135526314Y-75122976D01*
X135488236Y-75132514D01*
X135449407Y-75138274D01*
X135410200Y-75140200D01*
X126210200Y-75140200D01*
X126170993Y-75138274D01*
X126132164Y-75132514D01*
X126094086Y-75122976D01*
X126057127Y-75109752D01*
X126021641Y-75092969D01*
X125987972Y-75072788D01*
X125956443Y-75049404D01*
X125927357Y-75023043D01*
X125900996Y-74993957D01*
X125877612Y-74962428D01*
X125857431Y-74928759D01*
X125840648Y-74893273D01*
X125827424Y-74856314D01*
X125817886Y-74818236D01*
X125812126Y-74779407D01*
X125810200Y-74740200D01*
X125810200Y-73940200D01*
X125812126Y-73900993D01*
X125817886Y-73862164D01*
X125827424Y-73824086D01*
X125840648Y-73787127D01*
X125857431Y-73751641D01*
X125877612Y-73717972D01*
X125900996Y-73686443D01*
X125927357Y-73657357D01*
X125956443Y-73630996D01*
X125987972Y-73607612D01*
X126021641Y-73587431D01*
X126057127Y-73570648D01*
X126094086Y-73557424D01*
X126132164Y-73547886D01*
X126170993Y-73542126D01*
X126210200Y-73540200D01*
X135410200Y-73540200D01*
X135449407Y-73542126D01*
X135449407Y-73542126D01*
G37*
D13*
G04 #@! TD*
G04 #@! TO.P,J1,23*
G04 #@! TO.N,D2*
X130810200Y-74340200D03*
D12*
G04 #@! TO.N,D1*
G04 #@! TO.C,J1*
G36*
X135449407Y-71002126D02*
X135488236Y-71007886D01*
X135526314Y-71017424D01*
X135563273Y-71030648D01*
X135598759Y-71047431D01*
X135632428Y-71067612D01*
X135663957Y-71090996D01*
X135693043Y-71117357D01*
X135719404Y-71146443D01*
X135742788Y-71177972D01*
X135762969Y-71211641D01*
X135779752Y-71247127D01*
X135792976Y-71284086D01*
X135802514Y-71322164D01*
X135808274Y-71360993D01*
X135810200Y-71400200D01*
X135810200Y-72200200D01*
X135808274Y-72239407D01*
X135802514Y-72278236D01*
X135792976Y-72316314D01*
X135779752Y-72353273D01*
X135762969Y-72388759D01*
X135742788Y-72422428D01*
X135719404Y-72453957D01*
X135693043Y-72483043D01*
X135663957Y-72509404D01*
X135632428Y-72532788D01*
X135598759Y-72552969D01*
X135563273Y-72569752D01*
X135526314Y-72582976D01*
X135488236Y-72592514D01*
X135449407Y-72598274D01*
X135410200Y-72600200D01*
X126210200Y-72600200D01*
X126170993Y-72598274D01*
X126132164Y-72592514D01*
X126094086Y-72582976D01*
X126057127Y-72569752D01*
X126021641Y-72552969D01*
X125987972Y-72532788D01*
X125956443Y-72509404D01*
X125927357Y-72483043D01*
X125900996Y-72453957D01*
X125877612Y-72422428D01*
X125857431Y-72388759D01*
X125840648Y-72353273D01*
X125827424Y-72316314D01*
X125817886Y-72278236D01*
X125812126Y-72239407D01*
X125810200Y-72200200D01*
X125810200Y-71400200D01*
X125812126Y-71360993D01*
X125817886Y-71322164D01*
X125827424Y-71284086D01*
X125840648Y-71247127D01*
X125857431Y-71211641D01*
X125877612Y-71177972D01*
X125900996Y-71146443D01*
X125927357Y-71117357D01*
X125956443Y-71090996D01*
X125987972Y-71067612D01*
X126021641Y-71047431D01*
X126057127Y-71030648D01*
X126094086Y-71017424D01*
X126132164Y-71007886D01*
X126170993Y-71002126D01*
X126210200Y-71000200D01*
X135410200Y-71000200D01*
X135449407Y-71002126D01*
X135449407Y-71002126D01*
G37*
D13*
G04 #@! TD*
G04 #@! TO.P,J1,21*
G04 #@! TO.N,D1*
X130810200Y-71800200D03*
D12*
G04 #@! TO.N,D0*
G04 #@! TO.C,J1*
G36*
X135449407Y-68462126D02*
X135488236Y-68467886D01*
X135526314Y-68477424D01*
X135563273Y-68490648D01*
X135598759Y-68507431D01*
X135632428Y-68527612D01*
X135663957Y-68550996D01*
X135693043Y-68577357D01*
X135719404Y-68606443D01*
X135742788Y-68637972D01*
X135762969Y-68671641D01*
X135779752Y-68707127D01*
X135792976Y-68744086D01*
X135802514Y-68782164D01*
X135808274Y-68820993D01*
X135810200Y-68860200D01*
X135810200Y-69660200D01*
X135808274Y-69699407D01*
X135802514Y-69738236D01*
X135792976Y-69776314D01*
X135779752Y-69813273D01*
X135762969Y-69848759D01*
X135742788Y-69882428D01*
X135719404Y-69913957D01*
X135693043Y-69943043D01*
X135663957Y-69969404D01*
X135632428Y-69992788D01*
X135598759Y-70012969D01*
X135563273Y-70029752D01*
X135526314Y-70042976D01*
X135488236Y-70052514D01*
X135449407Y-70058274D01*
X135410200Y-70060200D01*
X126210200Y-70060200D01*
X126170993Y-70058274D01*
X126132164Y-70052514D01*
X126094086Y-70042976D01*
X126057127Y-70029752D01*
X126021641Y-70012969D01*
X125987972Y-69992788D01*
X125956443Y-69969404D01*
X125927357Y-69943043D01*
X125900996Y-69913957D01*
X125877612Y-69882428D01*
X125857431Y-69848759D01*
X125840648Y-69813273D01*
X125827424Y-69776314D01*
X125817886Y-69738236D01*
X125812126Y-69699407D01*
X125810200Y-69660200D01*
X125810200Y-68860200D01*
X125812126Y-68820993D01*
X125817886Y-68782164D01*
X125827424Y-68744086D01*
X125840648Y-68707127D01*
X125857431Y-68671641D01*
X125877612Y-68637972D01*
X125900996Y-68606443D01*
X125927357Y-68577357D01*
X125956443Y-68550996D01*
X125987972Y-68527612D01*
X126021641Y-68507431D01*
X126057127Y-68490648D01*
X126094086Y-68477424D01*
X126132164Y-68467886D01*
X126170993Y-68462126D01*
X126210200Y-68460200D01*
X135410200Y-68460200D01*
X135449407Y-68462126D01*
X135449407Y-68462126D01*
G37*
D13*
G04 #@! TD*
G04 #@! TO.P,J1,19*
G04 #@! TO.N,D0*
X130810200Y-69260200D03*
D12*
G04 #@! TO.N,A0*
G04 #@! TO.C,J1*
G36*
X135449407Y-65922126D02*
X135488236Y-65927886D01*
X135526314Y-65937424D01*
X135563273Y-65950648D01*
X135598759Y-65967431D01*
X135632428Y-65987612D01*
X135663957Y-66010996D01*
X135693043Y-66037357D01*
X135719404Y-66066443D01*
X135742788Y-66097972D01*
X135762969Y-66131641D01*
X135779752Y-66167127D01*
X135792976Y-66204086D01*
X135802514Y-66242164D01*
X135808274Y-66280993D01*
X135810200Y-66320200D01*
X135810200Y-67120200D01*
X135808274Y-67159407D01*
X135802514Y-67198236D01*
X135792976Y-67236314D01*
X135779752Y-67273273D01*
X135762969Y-67308759D01*
X135742788Y-67342428D01*
X135719404Y-67373957D01*
X135693043Y-67403043D01*
X135663957Y-67429404D01*
X135632428Y-67452788D01*
X135598759Y-67472969D01*
X135563273Y-67489752D01*
X135526314Y-67502976D01*
X135488236Y-67512514D01*
X135449407Y-67518274D01*
X135410200Y-67520200D01*
X126210200Y-67520200D01*
X126170993Y-67518274D01*
X126132164Y-67512514D01*
X126094086Y-67502976D01*
X126057127Y-67489752D01*
X126021641Y-67472969D01*
X125987972Y-67452788D01*
X125956443Y-67429404D01*
X125927357Y-67403043D01*
X125900996Y-67373957D01*
X125877612Y-67342428D01*
X125857431Y-67308759D01*
X125840648Y-67273273D01*
X125827424Y-67236314D01*
X125817886Y-67198236D01*
X125812126Y-67159407D01*
X125810200Y-67120200D01*
X125810200Y-66320200D01*
X125812126Y-66280993D01*
X125817886Y-66242164D01*
X125827424Y-66204086D01*
X125840648Y-66167127D01*
X125857431Y-66131641D01*
X125877612Y-66097972D01*
X125900996Y-66066443D01*
X125927357Y-66037357D01*
X125956443Y-66010996D01*
X125987972Y-65987612D01*
X126021641Y-65967431D01*
X126057127Y-65950648D01*
X126094086Y-65937424D01*
X126132164Y-65927886D01*
X126170993Y-65922126D01*
X126210200Y-65920200D01*
X135410200Y-65920200D01*
X135449407Y-65922126D01*
X135449407Y-65922126D01*
G37*
D13*
G04 #@! TD*
G04 #@! TO.P,J1,17*
G04 #@! TO.N,A0*
X130810200Y-66720200D03*
D12*
G04 #@! TO.N,A1*
G04 #@! TO.C,J1*
G36*
X135449407Y-63382126D02*
X135488236Y-63387886D01*
X135526314Y-63397424D01*
X135563273Y-63410648D01*
X135598759Y-63427431D01*
X135632428Y-63447612D01*
X135663957Y-63470996D01*
X135693043Y-63497357D01*
X135719404Y-63526443D01*
X135742788Y-63557972D01*
X135762969Y-63591641D01*
X135779752Y-63627127D01*
X135792976Y-63664086D01*
X135802514Y-63702164D01*
X135808274Y-63740993D01*
X135810200Y-63780200D01*
X135810200Y-64580200D01*
X135808274Y-64619407D01*
X135802514Y-64658236D01*
X135792976Y-64696314D01*
X135779752Y-64733273D01*
X135762969Y-64768759D01*
X135742788Y-64802428D01*
X135719404Y-64833957D01*
X135693043Y-64863043D01*
X135663957Y-64889404D01*
X135632428Y-64912788D01*
X135598759Y-64932969D01*
X135563273Y-64949752D01*
X135526314Y-64962976D01*
X135488236Y-64972514D01*
X135449407Y-64978274D01*
X135410200Y-64980200D01*
X126210200Y-64980200D01*
X126170993Y-64978274D01*
X126132164Y-64972514D01*
X126094086Y-64962976D01*
X126057127Y-64949752D01*
X126021641Y-64932969D01*
X125987972Y-64912788D01*
X125956443Y-64889404D01*
X125927357Y-64863043D01*
X125900996Y-64833957D01*
X125877612Y-64802428D01*
X125857431Y-64768759D01*
X125840648Y-64733273D01*
X125827424Y-64696314D01*
X125817886Y-64658236D01*
X125812126Y-64619407D01*
X125810200Y-64580200D01*
X125810200Y-63780200D01*
X125812126Y-63740993D01*
X125817886Y-63702164D01*
X125827424Y-63664086D01*
X125840648Y-63627127D01*
X125857431Y-63591641D01*
X125877612Y-63557972D01*
X125900996Y-63526443D01*
X125927357Y-63497357D01*
X125956443Y-63470996D01*
X125987972Y-63447612D01*
X126021641Y-63427431D01*
X126057127Y-63410648D01*
X126094086Y-63397424D01*
X126132164Y-63387886D01*
X126170993Y-63382126D01*
X126210200Y-63380200D01*
X135410200Y-63380200D01*
X135449407Y-63382126D01*
X135449407Y-63382126D01*
G37*
D13*
G04 #@! TD*
G04 #@! TO.P,J1,15*
G04 #@! TO.N,A1*
X130810200Y-64180200D03*
D12*
G04 #@! TO.N,A2*
G04 #@! TO.C,J1*
G36*
X135449407Y-60842126D02*
X135488236Y-60847886D01*
X135526314Y-60857424D01*
X135563273Y-60870648D01*
X135598759Y-60887431D01*
X135632428Y-60907612D01*
X135663957Y-60930996D01*
X135693043Y-60957357D01*
X135719404Y-60986443D01*
X135742788Y-61017972D01*
X135762969Y-61051641D01*
X135779752Y-61087127D01*
X135792976Y-61124086D01*
X135802514Y-61162164D01*
X135808274Y-61200993D01*
X135810200Y-61240200D01*
X135810200Y-62040200D01*
X135808274Y-62079407D01*
X135802514Y-62118236D01*
X135792976Y-62156314D01*
X135779752Y-62193273D01*
X135762969Y-62228759D01*
X135742788Y-62262428D01*
X135719404Y-62293957D01*
X135693043Y-62323043D01*
X135663957Y-62349404D01*
X135632428Y-62372788D01*
X135598759Y-62392969D01*
X135563273Y-62409752D01*
X135526314Y-62422976D01*
X135488236Y-62432514D01*
X135449407Y-62438274D01*
X135410200Y-62440200D01*
X126210200Y-62440200D01*
X126170993Y-62438274D01*
X126132164Y-62432514D01*
X126094086Y-62422976D01*
X126057127Y-62409752D01*
X126021641Y-62392969D01*
X125987972Y-62372788D01*
X125956443Y-62349404D01*
X125927357Y-62323043D01*
X125900996Y-62293957D01*
X125877612Y-62262428D01*
X125857431Y-62228759D01*
X125840648Y-62193273D01*
X125827424Y-62156314D01*
X125817886Y-62118236D01*
X125812126Y-62079407D01*
X125810200Y-62040200D01*
X125810200Y-61240200D01*
X125812126Y-61200993D01*
X125817886Y-61162164D01*
X125827424Y-61124086D01*
X125840648Y-61087127D01*
X125857431Y-61051641D01*
X125877612Y-61017972D01*
X125900996Y-60986443D01*
X125927357Y-60957357D01*
X125956443Y-60930996D01*
X125987972Y-60907612D01*
X126021641Y-60887431D01*
X126057127Y-60870648D01*
X126094086Y-60857424D01*
X126132164Y-60847886D01*
X126170993Y-60842126D01*
X126210200Y-60840200D01*
X135410200Y-60840200D01*
X135449407Y-60842126D01*
X135449407Y-60842126D01*
G37*
D13*
G04 #@! TD*
G04 #@! TO.P,J1,13*
G04 #@! TO.N,A2*
X130810200Y-61640200D03*
D12*
G04 #@! TO.N,A3*
G04 #@! TO.C,J1*
G36*
X135449407Y-58302126D02*
X135488236Y-58307886D01*
X135526314Y-58317424D01*
X135563273Y-58330648D01*
X135598759Y-58347431D01*
X135632428Y-58367612D01*
X135663957Y-58390996D01*
X135693043Y-58417357D01*
X135719404Y-58446443D01*
X135742788Y-58477972D01*
X135762969Y-58511641D01*
X135779752Y-58547127D01*
X135792976Y-58584086D01*
X135802514Y-58622164D01*
X135808274Y-58660993D01*
X135810200Y-58700200D01*
X135810200Y-59500200D01*
X135808274Y-59539407D01*
X135802514Y-59578236D01*
X135792976Y-59616314D01*
X135779752Y-59653273D01*
X135762969Y-59688759D01*
X135742788Y-59722428D01*
X135719404Y-59753957D01*
X135693043Y-59783043D01*
X135663957Y-59809404D01*
X135632428Y-59832788D01*
X135598759Y-59852969D01*
X135563273Y-59869752D01*
X135526314Y-59882976D01*
X135488236Y-59892514D01*
X135449407Y-59898274D01*
X135410200Y-59900200D01*
X126210200Y-59900200D01*
X126170993Y-59898274D01*
X126132164Y-59892514D01*
X126094086Y-59882976D01*
X126057127Y-59869752D01*
X126021641Y-59852969D01*
X125987972Y-59832788D01*
X125956443Y-59809404D01*
X125927357Y-59783043D01*
X125900996Y-59753957D01*
X125877612Y-59722428D01*
X125857431Y-59688759D01*
X125840648Y-59653273D01*
X125827424Y-59616314D01*
X125817886Y-59578236D01*
X125812126Y-59539407D01*
X125810200Y-59500200D01*
X125810200Y-58700200D01*
X125812126Y-58660993D01*
X125817886Y-58622164D01*
X125827424Y-58584086D01*
X125840648Y-58547127D01*
X125857431Y-58511641D01*
X125877612Y-58477972D01*
X125900996Y-58446443D01*
X125927357Y-58417357D01*
X125956443Y-58390996D01*
X125987972Y-58367612D01*
X126021641Y-58347431D01*
X126057127Y-58330648D01*
X126094086Y-58317424D01*
X126132164Y-58307886D01*
X126170993Y-58302126D01*
X126210200Y-58300200D01*
X135410200Y-58300200D01*
X135449407Y-58302126D01*
X135449407Y-58302126D01*
G37*
D13*
G04 #@! TD*
G04 #@! TO.P,J1,11*
G04 #@! TO.N,A3*
X130810200Y-59100200D03*
D12*
G04 #@! TO.N,A4*
G04 #@! TO.C,J1*
G36*
X135449407Y-55762126D02*
X135488236Y-55767886D01*
X135526314Y-55777424D01*
X135563273Y-55790648D01*
X135598759Y-55807431D01*
X135632428Y-55827612D01*
X135663957Y-55850996D01*
X135693043Y-55877357D01*
X135719404Y-55906443D01*
X135742788Y-55937972D01*
X135762969Y-55971641D01*
X135779752Y-56007127D01*
X135792976Y-56044086D01*
X135802514Y-56082164D01*
X135808274Y-56120993D01*
X135810200Y-56160200D01*
X135810200Y-56960200D01*
X135808274Y-56999407D01*
X135802514Y-57038236D01*
X135792976Y-57076314D01*
X135779752Y-57113273D01*
X135762969Y-57148759D01*
X135742788Y-57182428D01*
X135719404Y-57213957D01*
X135693043Y-57243043D01*
X135663957Y-57269404D01*
X135632428Y-57292788D01*
X135598759Y-57312969D01*
X135563273Y-57329752D01*
X135526314Y-57342976D01*
X135488236Y-57352514D01*
X135449407Y-57358274D01*
X135410200Y-57360200D01*
X126210200Y-57360200D01*
X126170993Y-57358274D01*
X126132164Y-57352514D01*
X126094086Y-57342976D01*
X126057127Y-57329752D01*
X126021641Y-57312969D01*
X125987972Y-57292788D01*
X125956443Y-57269404D01*
X125927357Y-57243043D01*
X125900996Y-57213957D01*
X125877612Y-57182428D01*
X125857431Y-57148759D01*
X125840648Y-57113273D01*
X125827424Y-57076314D01*
X125817886Y-57038236D01*
X125812126Y-56999407D01*
X125810200Y-56960200D01*
X125810200Y-56160200D01*
X125812126Y-56120993D01*
X125817886Y-56082164D01*
X125827424Y-56044086D01*
X125840648Y-56007127D01*
X125857431Y-55971641D01*
X125877612Y-55937972D01*
X125900996Y-55906443D01*
X125927357Y-55877357D01*
X125956443Y-55850996D01*
X125987972Y-55827612D01*
X126021641Y-55807431D01*
X126057127Y-55790648D01*
X126094086Y-55777424D01*
X126132164Y-55767886D01*
X126170993Y-55762126D01*
X126210200Y-55760200D01*
X135410200Y-55760200D01*
X135449407Y-55762126D01*
X135449407Y-55762126D01*
G37*
D13*
G04 #@! TD*
G04 #@! TO.P,J1,9*
G04 #@! TO.N,A4*
X130810200Y-56560200D03*
D12*
G04 #@! TO.N,A5*
G04 #@! TO.C,J1*
G36*
X135449407Y-53222126D02*
X135488236Y-53227886D01*
X135526314Y-53237424D01*
X135563273Y-53250648D01*
X135598759Y-53267431D01*
X135632428Y-53287612D01*
X135663957Y-53310996D01*
X135693043Y-53337357D01*
X135719404Y-53366443D01*
X135742788Y-53397972D01*
X135762969Y-53431641D01*
X135779752Y-53467127D01*
X135792976Y-53504086D01*
X135802514Y-53542164D01*
X135808274Y-53580993D01*
X135810200Y-53620200D01*
X135810200Y-54420200D01*
X135808274Y-54459407D01*
X135802514Y-54498236D01*
X135792976Y-54536314D01*
X135779752Y-54573273D01*
X135762969Y-54608759D01*
X135742788Y-54642428D01*
X135719404Y-54673957D01*
X135693043Y-54703043D01*
X135663957Y-54729404D01*
X135632428Y-54752788D01*
X135598759Y-54772969D01*
X135563273Y-54789752D01*
X135526314Y-54802976D01*
X135488236Y-54812514D01*
X135449407Y-54818274D01*
X135410200Y-54820200D01*
X126210200Y-54820200D01*
X126170993Y-54818274D01*
X126132164Y-54812514D01*
X126094086Y-54802976D01*
X126057127Y-54789752D01*
X126021641Y-54772969D01*
X125987972Y-54752788D01*
X125956443Y-54729404D01*
X125927357Y-54703043D01*
X125900996Y-54673957D01*
X125877612Y-54642428D01*
X125857431Y-54608759D01*
X125840648Y-54573273D01*
X125827424Y-54536314D01*
X125817886Y-54498236D01*
X125812126Y-54459407D01*
X125810200Y-54420200D01*
X125810200Y-53620200D01*
X125812126Y-53580993D01*
X125817886Y-53542164D01*
X125827424Y-53504086D01*
X125840648Y-53467127D01*
X125857431Y-53431641D01*
X125877612Y-53397972D01*
X125900996Y-53366443D01*
X125927357Y-53337357D01*
X125956443Y-53310996D01*
X125987972Y-53287612D01*
X126021641Y-53267431D01*
X126057127Y-53250648D01*
X126094086Y-53237424D01*
X126132164Y-53227886D01*
X126170993Y-53222126D01*
X126210200Y-53220200D01*
X135410200Y-53220200D01*
X135449407Y-53222126D01*
X135449407Y-53222126D01*
G37*
D13*
G04 #@! TD*
G04 #@! TO.P,J1,7*
G04 #@! TO.N,A5*
X130810200Y-54020200D03*
D12*
G04 #@! TO.N,A6*
G04 #@! TO.C,J1*
G36*
X135449407Y-50682126D02*
X135488236Y-50687886D01*
X135526314Y-50697424D01*
X135563273Y-50710648D01*
X135598759Y-50727431D01*
X135632428Y-50747612D01*
X135663957Y-50770996D01*
X135693043Y-50797357D01*
X135719404Y-50826443D01*
X135742788Y-50857972D01*
X135762969Y-50891641D01*
X135779752Y-50927127D01*
X135792976Y-50964086D01*
X135802514Y-51002164D01*
X135808274Y-51040993D01*
X135810200Y-51080200D01*
X135810200Y-51880200D01*
X135808274Y-51919407D01*
X135802514Y-51958236D01*
X135792976Y-51996314D01*
X135779752Y-52033273D01*
X135762969Y-52068759D01*
X135742788Y-52102428D01*
X135719404Y-52133957D01*
X135693043Y-52163043D01*
X135663957Y-52189404D01*
X135632428Y-52212788D01*
X135598759Y-52232969D01*
X135563273Y-52249752D01*
X135526314Y-52262976D01*
X135488236Y-52272514D01*
X135449407Y-52278274D01*
X135410200Y-52280200D01*
X126210200Y-52280200D01*
X126170993Y-52278274D01*
X126132164Y-52272514D01*
X126094086Y-52262976D01*
X126057127Y-52249752D01*
X126021641Y-52232969D01*
X125987972Y-52212788D01*
X125956443Y-52189404D01*
X125927357Y-52163043D01*
X125900996Y-52133957D01*
X125877612Y-52102428D01*
X125857431Y-52068759D01*
X125840648Y-52033273D01*
X125827424Y-51996314D01*
X125817886Y-51958236D01*
X125812126Y-51919407D01*
X125810200Y-51880200D01*
X125810200Y-51080200D01*
X125812126Y-51040993D01*
X125817886Y-51002164D01*
X125827424Y-50964086D01*
X125840648Y-50927127D01*
X125857431Y-50891641D01*
X125877612Y-50857972D01*
X125900996Y-50826443D01*
X125927357Y-50797357D01*
X125956443Y-50770996D01*
X125987972Y-50747612D01*
X126021641Y-50727431D01*
X126057127Y-50710648D01*
X126094086Y-50697424D01*
X126132164Y-50687886D01*
X126170993Y-50682126D01*
X126210200Y-50680200D01*
X135410200Y-50680200D01*
X135449407Y-50682126D01*
X135449407Y-50682126D01*
G37*
D13*
G04 #@! TD*
G04 #@! TO.P,J1,5*
G04 #@! TO.N,A6*
X130810200Y-51480200D03*
D12*
G04 #@! TO.N,A7*
G04 #@! TO.C,J1*
G36*
X135449407Y-48142126D02*
X135488236Y-48147886D01*
X135526314Y-48157424D01*
X135563273Y-48170648D01*
X135598759Y-48187431D01*
X135632428Y-48207612D01*
X135663957Y-48230996D01*
X135693043Y-48257357D01*
X135719404Y-48286443D01*
X135742788Y-48317972D01*
X135762969Y-48351641D01*
X135779752Y-48387127D01*
X135792976Y-48424086D01*
X135802514Y-48462164D01*
X135808274Y-48500993D01*
X135810200Y-48540200D01*
X135810200Y-49340200D01*
X135808274Y-49379407D01*
X135802514Y-49418236D01*
X135792976Y-49456314D01*
X135779752Y-49493273D01*
X135762969Y-49528759D01*
X135742788Y-49562428D01*
X135719404Y-49593957D01*
X135693043Y-49623043D01*
X135663957Y-49649404D01*
X135632428Y-49672788D01*
X135598759Y-49692969D01*
X135563273Y-49709752D01*
X135526314Y-49722976D01*
X135488236Y-49732514D01*
X135449407Y-49738274D01*
X135410200Y-49740200D01*
X126210200Y-49740200D01*
X126170993Y-49738274D01*
X126132164Y-49732514D01*
X126094086Y-49722976D01*
X126057127Y-49709752D01*
X126021641Y-49692969D01*
X125987972Y-49672788D01*
X125956443Y-49649404D01*
X125927357Y-49623043D01*
X125900996Y-49593957D01*
X125877612Y-49562428D01*
X125857431Y-49528759D01*
X125840648Y-49493273D01*
X125827424Y-49456314D01*
X125817886Y-49418236D01*
X125812126Y-49379407D01*
X125810200Y-49340200D01*
X125810200Y-48540200D01*
X125812126Y-48500993D01*
X125817886Y-48462164D01*
X125827424Y-48424086D01*
X125840648Y-48387127D01*
X125857431Y-48351641D01*
X125877612Y-48317972D01*
X125900996Y-48286443D01*
X125927357Y-48257357D01*
X125956443Y-48230996D01*
X125987972Y-48207612D01*
X126021641Y-48187431D01*
X126057127Y-48170648D01*
X126094086Y-48157424D01*
X126132164Y-48147886D01*
X126170993Y-48142126D01*
X126210200Y-48140200D01*
X135410200Y-48140200D01*
X135449407Y-48142126D01*
X135449407Y-48142126D01*
G37*
D13*
G04 #@! TD*
G04 #@! TO.P,J1,3*
G04 #@! TO.N,A7*
X130810200Y-48940200D03*
D12*
G04 #@! TO.N,HALT*
G04 #@! TO.C,J1*
G36*
X135449407Y-45602126D02*
X135488236Y-45607886D01*
X135526314Y-45617424D01*
X135563273Y-45630648D01*
X135598759Y-45647431D01*
X135632428Y-45667612D01*
X135663957Y-45690996D01*
X135693043Y-45717357D01*
X135719404Y-45746443D01*
X135742788Y-45777972D01*
X135762969Y-45811641D01*
X135779752Y-45847127D01*
X135792976Y-45884086D01*
X135802514Y-45922164D01*
X135808274Y-45960993D01*
X135810200Y-46000200D01*
X135810200Y-46800200D01*
X135808274Y-46839407D01*
X135802514Y-46878236D01*
X135792976Y-46916314D01*
X135779752Y-46953273D01*
X135762969Y-46988759D01*
X135742788Y-47022428D01*
X135719404Y-47053957D01*
X135693043Y-47083043D01*
X135663957Y-47109404D01*
X135632428Y-47132788D01*
X135598759Y-47152969D01*
X135563273Y-47169752D01*
X135526314Y-47182976D01*
X135488236Y-47192514D01*
X135449407Y-47198274D01*
X135410200Y-47200200D01*
X126210200Y-47200200D01*
X126170993Y-47198274D01*
X126132164Y-47192514D01*
X126094086Y-47182976D01*
X126057127Y-47169752D01*
X126021641Y-47152969D01*
X125987972Y-47132788D01*
X125956443Y-47109404D01*
X125927357Y-47083043D01*
X125900996Y-47053957D01*
X125877612Y-47022428D01*
X125857431Y-46988759D01*
X125840648Y-46953273D01*
X125827424Y-46916314D01*
X125817886Y-46878236D01*
X125812126Y-46839407D01*
X125810200Y-46800200D01*
X125810200Y-46000200D01*
X125812126Y-45960993D01*
X125817886Y-45922164D01*
X125827424Y-45884086D01*
X125840648Y-45847127D01*
X125857431Y-45811641D01*
X125877612Y-45777972D01*
X125900996Y-45746443D01*
X125927357Y-45717357D01*
X125956443Y-45690996D01*
X125987972Y-45667612D01*
X126021641Y-45647431D01*
X126057127Y-45630648D01*
X126094086Y-45617424D01*
X126132164Y-45607886D01*
X126170993Y-45602126D01*
X126210200Y-45600200D01*
X135410200Y-45600200D01*
X135449407Y-45602126D01*
X135449407Y-45602126D01*
G37*
D13*
G04 #@! TD*
G04 #@! TO.P,J1,1*
G04 #@! TO.N,HALT*
X130810200Y-46400200D03*
D10*
G04 #@! TO.P,SW1,16*
G04 #@! TO.N,VCC*
X67437000Y-68427600D03*
G04 #@! TO.P,SW1,8*
G04 #@! TO.N,Net-(SW1-Pad8)*
X75057000Y-50647600D03*
G04 #@! TO.P,SW1,15*
G04 #@! TO.N,VCC*
X67437000Y-65887600D03*
G04 #@! TO.P,SW1,7*
G04 #@! TO.N,Net-(SW1-Pad7)*
X75057000Y-53187600D03*
G04 #@! TO.P,SW1,14*
G04 #@! TO.N,VCC*
X67437000Y-63347600D03*
G04 #@! TO.P,SW1,6*
G04 #@! TO.N,Net-(R6-Pad1)*
X75057000Y-55727600D03*
G04 #@! TO.P,SW1,13*
G04 #@! TO.N,VCC*
X67437000Y-60807600D03*
G04 #@! TO.P,SW1,5*
G04 #@! TO.N,Net-(R1-Pad1)*
X75057000Y-58267600D03*
G04 #@! TO.P,SW1,12*
G04 #@! TO.N,VCC*
X67437000Y-58267600D03*
G04 #@! TO.P,SW1,4*
G04 #@! TO.N,Net-(R2-Pad1)*
X75057000Y-60807600D03*
G04 #@! TO.P,SW1,11*
G04 #@! TO.N,VCC*
X67437000Y-55727600D03*
G04 #@! TO.P,SW1,3*
G04 #@! TO.N,Net-(R3-Pad1)*
X75057000Y-63347600D03*
G04 #@! TO.P,SW1,10*
G04 #@! TO.N,Net-(SW1-Pad10)*
X67437000Y-53187600D03*
G04 #@! TO.P,SW1,2*
G04 #@! TO.N,Net-(JP4-Pad1)*
X75057000Y-65887600D03*
G04 #@! TO.P,SW1,9*
G04 #@! TO.N,Net-(SW1-Pad9)*
X67437000Y-50647600D03*
D14*
G04 #@! TO.P,SW1,1*
G04 #@! TO.N,Net-(JP2-Pad1)*
X75057000Y-68427600D03*
G04 #@! TD*
D15*
G04 #@! TO.P,U1,32*
G04 #@! TO.N,VCC*
X109194600Y-48844200D03*
G04 #@! TO.P,U1,16*
G04 #@! TO.N,GND*
X93954600Y-86944200D03*
G04 #@! TO.P,U1,31*
G04 #@! TO.N,Net-(R6-Pad1)*
X109194600Y-51384200D03*
G04 #@! TO.P,U1,15*
G04 #@! TO.N,D2*
X93954600Y-84404200D03*
G04 #@! TO.P,U1,30*
G04 #@! TO.N,Net-(R1-Pad1)*
X109194600Y-53924200D03*
G04 #@! TO.P,U1,14*
G04 #@! TO.N,D1*
X93954600Y-81864200D03*
G04 #@! TO.P,U1,29*
G04 #@! TO.N,Net-(JP3-Pad2)*
X109194600Y-56464200D03*
G04 #@! TO.P,U1,13*
G04 #@! TO.N,D0*
X93954600Y-79324200D03*
G04 #@! TO.P,U1,28*
G04 #@! TO.N,Net-(JP1-Pad2)*
X109194600Y-59004200D03*
G04 #@! TO.P,U1,12*
G04 #@! TO.N,A0*
X93954600Y-76784200D03*
G04 #@! TO.P,U1,27*
G04 #@! TO.N,A8*
X109194600Y-61544200D03*
G04 #@! TO.P,U1,11*
G04 #@! TO.N,A1*
X93954600Y-74244200D03*
G04 #@! TO.P,U1,26*
G04 #@! TO.N,A9*
X109194600Y-64084200D03*
G04 #@! TO.P,U1,10*
G04 #@! TO.N,A2*
X93954600Y-71704200D03*
G04 #@! TO.P,U1,25*
G04 #@! TO.N,A11*
X109194600Y-66624200D03*
G04 #@! TO.P,U1,9*
G04 #@! TO.N,A3*
X93954600Y-69164200D03*
G04 #@! TO.P,U1,24*
G04 #@! TO.N,OE*
X109194600Y-69164200D03*
G04 #@! TO.P,U1,8*
G04 #@! TO.N,A4*
X93954600Y-66624200D03*
G04 #@! TO.P,U1,23*
G04 #@! TO.N,A10*
X109194600Y-71704200D03*
G04 #@! TO.P,U1,7*
G04 #@! TO.N,A5*
X93954600Y-64084200D03*
G04 #@! TO.P,U1,22*
G04 #@! TO.N,CE*
X109194600Y-74244200D03*
G04 #@! TO.P,U1,6*
G04 #@! TO.N,A6*
X93954600Y-61544200D03*
G04 #@! TO.P,U1,21*
G04 #@! TO.N,D7*
X109194600Y-76784200D03*
G04 #@! TO.P,U1,5*
G04 #@! TO.N,A7*
X93954600Y-59004200D03*
G04 #@! TO.P,U1,20*
G04 #@! TO.N,D6*
X109194600Y-79324200D03*
G04 #@! TO.P,U1,4*
G04 #@! TO.N,A12*
X93954600Y-56464200D03*
G04 #@! TO.P,U1,19*
G04 #@! TO.N,D5*
X109194600Y-81864200D03*
G04 #@! TO.P,U1,3*
G04 #@! TO.N,Net-(R3-Pad1)*
X93954600Y-53924200D03*
G04 #@! TO.P,U1,18*
G04 #@! TO.N,D4*
X109194600Y-84404200D03*
G04 #@! TO.P,U1,2*
G04 #@! TO.N,Net-(R2-Pad1)*
X93954600Y-51384200D03*
G04 #@! TO.P,U1,17*
G04 #@! TO.N,D3*
X109194600Y-86944200D03*
D16*
G04 #@! TO.P,U1,1*
G04 #@! TO.N,Net-(U1-Pad1)*
X93954600Y-48844200D03*
G04 #@! TD*
D17*
G04 #@! TO.P,JP1,2*
G04 #@! TO.N,Net-(JP1-Pad2)*
X87934800Y-68910200D03*
D18*
G04 #@! TO.P,JP1,1*
G04 #@! TO.N,A13*
X87934800Y-66370200D03*
G04 #@! TD*
D17*
G04 #@! TO.P,JP2,2*
G04 #@! TO.N,Net-(JP1-Pad2)*
X82753200Y-68986400D03*
D18*
G04 #@! TO.P,JP2,1*
G04 #@! TO.N,Net-(JP2-Pad1)*
X82753200Y-66446400D03*
G04 #@! TD*
D17*
G04 #@! TO.P,JP3,2*
G04 #@! TO.N,Net-(JP3-Pad2)*
X88138000Y-57785000D03*
D18*
G04 #@! TO.P,JP3,1*
G04 #@! TO.N,A14*
X88138000Y-60325000D03*
G04 #@! TD*
D17*
G04 #@! TO.P,JP4,2*
G04 #@! TO.N,Net-(JP3-Pad2)*
X82626200Y-57912000D03*
D18*
G04 #@! TO.P,JP4,1*
G04 #@! TO.N,Net-(JP4-Pad1)*
X82626200Y-60452000D03*
G04 #@! TD*
D19*
G04 #@! TO.N,Net-(R1-Pad1)*
X98000610Y-50259190D03*
G04 #@! TO.N,GND*
X124790200Y-79324200D03*
X123698000Y-79324200D03*
X122504200Y-79324200D03*
G04 #@! TO.N,A12*
X105714800Y-84745990D03*
G04 #@! TO.N,A14*
X86283800Y-87833200D03*
G04 #@! TO.N,A13*
X103911400Y-86842600D03*
G04 #@! TO.N,Net-(R6-Pad1)*
X91236800Y-60325000D03*
G04 #@! TD*
D20*
G04 #@! TO.N,Net-(R1-Pad1)*
X97855620Y-50114200D02*
X98000610Y-50259190D01*
X83210400Y-50114200D02*
X97855620Y-50114200D01*
X75057000Y-58267600D02*
X83210400Y-50114200D01*
X66929000Y-77368400D02*
X66929000Y-77343000D01*
X70358000Y-73939400D02*
X70358000Y-62966600D01*
X70358000Y-62966600D02*
X75057000Y-58267600D01*
X66929000Y-77368400D02*
X70358000Y-73939400D01*
G04 #@! TO.N,GND*
X71907400Y-85039200D02*
X71856600Y-84988400D01*
X71856600Y-84988400D02*
X70725230Y-84988400D01*
X126810200Y-76740200D02*
X124605600Y-76740200D01*
X101473000Y-86944200D02*
X93954600Y-86944200D01*
X126810200Y-79240200D02*
X126728400Y-79240200D01*
X107823000Y-80594200D02*
X101473000Y-86944200D01*
X126810200Y-79420200D02*
X126703000Y-79527400D01*
X126810200Y-79420200D02*
X126243600Y-79420200D01*
X125069600Y-80594200D02*
X107823000Y-80594200D01*
X126243600Y-79420200D02*
X125069600Y-80594200D01*
X126714200Y-79324200D02*
X126810200Y-79420200D01*
X124790200Y-79324200D02*
X126714200Y-79324200D01*
X64871600Y-75742800D02*
X64871600Y-82931000D01*
X69342000Y-71272400D02*
X64871600Y-75742800D01*
X82321400Y-47955200D02*
X75819000Y-54457600D01*
X72121998Y-54457600D02*
X69342000Y-57237598D01*
X64871600Y-82931000D02*
X66929000Y-84988400D01*
X75819000Y-54457600D02*
X72121998Y-54457600D01*
X69342000Y-57237598D02*
X69342000Y-71272400D01*
X90043000Y-86944200D02*
X88036400Y-84937600D01*
X93954600Y-86944200D02*
X90043000Y-86944200D01*
X79552800Y-85013800D02*
X79476600Y-84937600D01*
X83667600Y-85013800D02*
X79552800Y-85013800D01*
X79476600Y-84937600D02*
X75234800Y-84937600D01*
X74103430Y-84937600D02*
X71120000Y-84937600D01*
X75234800Y-84937600D02*
X74103430Y-84937600D01*
X66979800Y-84937600D02*
X66929000Y-84988400D01*
X71120000Y-84937600D02*
X66979800Y-84937600D01*
X87960200Y-85013800D02*
X83667600Y-85013800D01*
X88036400Y-84937600D02*
X87960200Y-85013800D01*
G04 #@! TO.N,Net-(R2-Pad1)*
X83083400Y-51384200D02*
X93954600Y-51384200D01*
X78663800Y-55803800D02*
X83083400Y-51384200D01*
X78663800Y-57200800D02*
X78663800Y-55803800D01*
X75057000Y-60807600D02*
X78663800Y-57200800D01*
X73837800Y-62026800D02*
X75057000Y-60807600D01*
X72390000Y-76047600D02*
X72390000Y-63474600D01*
X72390000Y-63474600D02*
X73837800Y-62026800D01*
X71120000Y-77317600D02*
X72390000Y-76047600D01*
G04 #@! TO.N,Net-(R3-Pad1)*
X93554600Y-53924200D02*
X93954600Y-53924200D01*
X82905600Y-53924200D02*
X93954600Y-53924200D01*
X80035400Y-56794400D02*
X82905600Y-53924200D01*
X80035400Y-58369200D02*
X80035400Y-56794400D01*
X75057000Y-63347600D02*
X80035400Y-58369200D01*
X73812400Y-66852588D02*
X73812400Y-64592200D01*
X74257001Y-64147599D02*
X75057000Y-63347600D01*
X75234800Y-77317600D02*
X73481988Y-75564788D01*
X73810599Y-66852588D02*
X73812400Y-66852588D01*
X73481988Y-75564788D02*
X73481988Y-67181199D01*
X73812400Y-64592200D02*
X74257001Y-64147599D01*
X73481988Y-67181199D02*
X73810599Y-66852588D01*
G04 #@! TO.N,VCC*
X108794600Y-48844200D02*
X109194600Y-48844200D01*
X67437000Y-68427600D02*
X67437000Y-65887600D01*
X67437000Y-64756230D02*
X67437000Y-63347600D01*
X67437000Y-65887600D02*
X67437000Y-64756230D01*
X67437000Y-62216230D02*
X67437000Y-60807600D01*
X67437000Y-63347600D02*
X67437000Y-62216230D01*
X67437000Y-59676230D02*
X67437000Y-58267600D01*
X67437000Y-60807600D02*
X67437000Y-59676230D01*
X67437000Y-56858970D02*
X67437000Y-58267600D01*
X67437000Y-55727600D02*
X67437000Y-56858970D01*
X67437000Y-58013600D02*
X67437000Y-58267600D01*
X67437000Y-55575200D02*
X67437000Y-55727600D01*
X109194600Y-48844200D02*
X107744600Y-48844200D01*
X76936600Y-46075600D02*
X67437000Y-55575200D01*
X107744600Y-48844200D02*
X104976000Y-46075600D01*
X104976000Y-46075600D02*
X76936600Y-46075600D01*
G04 #@! TO.N,A12*
X106109610Y-84745990D02*
X105714800Y-84745990D01*
X113103200Y-81740200D02*
X111734600Y-83108800D01*
X107746800Y-83108800D02*
X106109610Y-84745990D01*
X111734600Y-83108800D02*
X107746800Y-83108800D01*
X126810200Y-81740200D02*
X113103200Y-81740200D01*
G04 #@! TO.N,A7*
X126810200Y-49240200D02*
X125867400Y-49240200D01*
X113334800Y-50114200D02*
X102844600Y-50114200D01*
X126810200Y-49240200D02*
X125384800Y-49240200D01*
X94208600Y-58750200D02*
X93954600Y-59004200D01*
X125384800Y-49240200D02*
X123668000Y-47523400D01*
X123668000Y-47523400D02*
X115925600Y-47523400D01*
X102844600Y-50114200D02*
X94208600Y-58750200D01*
X115925600Y-47523400D02*
X113334800Y-50114200D01*
G04 #@! TO.N,A6*
X103987600Y-52654200D02*
X95097600Y-61544200D01*
X126810200Y-51740200D02*
X122986400Y-51740200D01*
X121335800Y-53390800D02*
X114376200Y-53390800D01*
X113639600Y-52654200D02*
X103987600Y-52654200D01*
X122986400Y-51740200D02*
X121335800Y-53390800D01*
X95097600Y-61544200D02*
X93954600Y-61544200D01*
X114376200Y-53390800D02*
X113639600Y-52654200D01*
G04 #@! TO.N,A5*
X95148400Y-64084200D02*
X93954600Y-64084200D01*
X104063800Y-55168800D02*
X95148400Y-64084200D01*
X126810200Y-54240200D02*
X126745200Y-54305200D01*
X126745200Y-54305200D02*
X123342400Y-54305200D01*
X123342400Y-54305200D02*
X122478800Y-55168800D01*
X122478800Y-55168800D02*
X104063800Y-55168800D01*
G04 #@! TO.N,A4*
X95910400Y-66624200D02*
X93954600Y-66624200D01*
X119913400Y-57734200D02*
X104800400Y-57734200D01*
X120907400Y-56740200D02*
X119913400Y-57734200D01*
X104800400Y-57734200D02*
X95910400Y-66624200D01*
X126810200Y-56740200D02*
X120907400Y-56740200D01*
G04 #@! TO.N,A3*
X97205800Y-69164200D02*
X93954600Y-69164200D01*
X115816600Y-59240200D02*
X112268000Y-62788800D01*
X112268000Y-62788800D02*
X103581200Y-62788800D01*
X103581200Y-62788800D02*
X97205800Y-69164200D01*
X126810200Y-59240200D02*
X115816600Y-59240200D01*
G04 #@! TO.N,A2*
X103505000Y-65328800D02*
X97129600Y-71704200D01*
X126810200Y-61740200D02*
X126803000Y-61747400D01*
X97129600Y-71704200D02*
X93954600Y-71704200D01*
X115163600Y-61747400D02*
X111582200Y-65328800D01*
X111582200Y-65328800D02*
X103505000Y-65328800D01*
X126803000Y-61747400D02*
X115163600Y-61747400D01*
G04 #@! TO.N,A1*
X130810200Y-63490200D02*
X131950200Y-63490200D01*
X115007600Y-64240200D02*
X111328200Y-67919600D01*
X98069400Y-74244200D02*
X93954600Y-74244200D01*
X111328200Y-67919600D02*
X104394000Y-67919600D01*
X104394000Y-67919600D02*
X98069400Y-74244200D01*
X126810200Y-64240200D02*
X115007600Y-64240200D01*
G04 #@! TO.N,A0*
X130810200Y-66490200D02*
X131490200Y-66490200D01*
X99161600Y-76784200D02*
X93954600Y-76784200D01*
X105511600Y-70434200D02*
X99161600Y-76784200D01*
X111836200Y-70434200D02*
X105511600Y-70434200D01*
X113411000Y-72009000D02*
X111836200Y-70434200D01*
X124750400Y-66740200D02*
X119481600Y-72009000D01*
X119481600Y-72009000D02*
X113411000Y-72009000D01*
X126810200Y-66740200D02*
X124750400Y-66740200D01*
G04 #@! TO.N,D0*
X130810200Y-69490200D02*
X131030200Y-69490200D01*
X100685600Y-79324200D02*
X93954600Y-79324200D01*
X124968200Y-69240200D02*
X121234200Y-72974200D01*
X121234200Y-72974200D02*
X107035600Y-72974200D01*
X107035600Y-72974200D02*
X100685600Y-79324200D01*
X126810200Y-69240200D02*
X124968200Y-69240200D01*
G04 #@! TO.N,D1*
X130810200Y-72490200D02*
X131840200Y-72490200D01*
X101346000Y-81864200D02*
X93954600Y-81864200D01*
X124576400Y-71740200D02*
X120827800Y-75488800D01*
X120827800Y-75488800D02*
X107721400Y-75488800D01*
X107721400Y-75488800D02*
X101346000Y-81864200D01*
X126810200Y-71740200D02*
X124576400Y-71740200D01*
G04 #@! TO.N,D2*
X100838000Y-84404200D02*
X93954600Y-84404200D01*
X124735400Y-74240200D02*
X120921400Y-78054200D01*
X120921400Y-78054200D02*
X107188000Y-78054200D01*
X107188000Y-78054200D02*
X100838000Y-84404200D01*
X126810200Y-74240200D02*
X124735400Y-74240200D01*
G04 #@! TO.N,A14*
X86683799Y-88233199D02*
X86283800Y-87833200D01*
X120580201Y-88233199D02*
X86683799Y-88233199D01*
X121437400Y-87376000D02*
X120580201Y-88233199D01*
X126174400Y-87376000D02*
X121437400Y-87376000D01*
X126810200Y-86740200D02*
X126174400Y-87376000D01*
G04 #@! TO.N,A13*
X104546400Y-86842600D02*
X103911400Y-86842600D01*
X105257600Y-86842600D02*
X104546400Y-86842600D01*
X106400600Y-85699600D02*
X105257600Y-86842600D01*
X114350800Y-82880200D02*
X111531400Y-85699600D01*
X125450200Y-82880200D02*
X114350800Y-82880200D01*
X111531400Y-85699600D02*
X106400600Y-85699600D01*
X126810200Y-84240200D02*
X125450200Y-82880200D01*
G04 #@! TO.N,Net-(JP4-Pad1)*
X80492600Y-60452000D02*
X82626200Y-60452000D01*
X75057000Y-65887600D02*
X80492600Y-60452000D01*
X79476600Y-77317600D02*
X79476600Y-75819000D01*
X73931999Y-70274399D02*
X73931999Y-67471211D01*
X75057000Y-66346210D02*
X75057000Y-65887600D01*
X79476600Y-75819000D02*
X73931999Y-70274399D01*
X73931999Y-67471211D02*
X75057000Y-66346210D01*
G04 #@! TO.N,Net-(JP2-Pad1)*
X77038200Y-66446400D02*
X82753200Y-66446400D01*
X75057000Y-68427600D02*
X77038200Y-66446400D01*
X83667600Y-77012800D02*
X75082400Y-68427600D01*
X75082400Y-68427600D02*
X75057000Y-68427600D01*
X83667600Y-77393800D02*
X83667600Y-77012800D01*
G04 #@! TO.N,Net-(JP3-Pad2)*
X86808919Y-57912000D02*
X83828281Y-57912000D01*
X83828281Y-57912000D02*
X82626200Y-57912000D01*
X86935919Y-57785000D02*
X86808919Y-57912000D01*
X88138000Y-57785000D02*
X86935919Y-57785000D01*
X104216200Y-56464200D02*
X109194600Y-56464200D01*
X95351600Y-65328800D02*
X104216200Y-56464200D01*
X88138000Y-57785000D02*
X88798400Y-57785000D01*
X90246200Y-63474600D02*
X92100400Y-65328800D01*
X92100400Y-65328800D02*
X95351600Y-65328800D01*
X88798400Y-57785000D02*
X90246200Y-59232800D01*
X90246200Y-59232800D02*
X90246200Y-63474600D01*
G04 #@! TO.N,Net-(JP1-Pad2)*
X87858600Y-68986400D02*
X87934800Y-68910200D01*
X82753200Y-68986400D02*
X87858600Y-68986400D01*
X107416600Y-59004200D02*
X109194600Y-59004200D01*
X91694000Y-68910200D02*
X92710000Y-67894200D01*
X92710000Y-67894200D02*
X96494600Y-67894200D01*
X105384600Y-59004200D02*
X107416600Y-59004200D01*
X87934800Y-68910200D02*
X91694000Y-68910200D01*
X96494600Y-67894200D02*
X105384600Y-59004200D01*
G04 #@! TO.N,Net-(R6-Pad1)*
X94624804Y-60325000D02*
X91802485Y-60325000D01*
X109194600Y-51384200D02*
X103565604Y-51384200D01*
X91802485Y-60325000D02*
X91236800Y-60325000D01*
X103565604Y-51384200D02*
X94624804Y-60325000D01*
G04 #@! TD*
D21*
G04 #@! TO.N,GND*
G36*
X126467996Y-80419140D02*
X119972146Y-80562431D01*
X122672179Y-77507131D01*
X124004207Y-76224437D01*
X126515929Y-76177046D01*
X126467996Y-80419140D01*
X126467996Y-80419140D01*
G37*
X126467996Y-80419140D02*
X119972146Y-80562431D01*
X122672179Y-77507131D01*
X124004207Y-76224437D01*
X126515929Y-76177046D01*
X126467996Y-80419140D01*
G04 #@! TD*
M02*
