G04 #@! TF.GenerationSoftware,KiCad,Pcbnew,6.0.0-d3dd2cf0fa~116~ubuntu20.04.1*
G04 #@! TF.CreationDate,2021-12-31T14:11:41+00:00*
G04 #@! TF.ProjectId,multicart,6d756c74-6963-4617-9274-2e6b69636164,V0.1*
G04 #@! TF.SameCoordinates,Original*
G04 #@! TF.FileFunction,Copper,L2,Bot*
G04 #@! TF.FilePolarity,Positive*
%FSLAX46Y46*%
G04 Gerber Fmt 4.6, Leading zero omitted, Abs format (unit mm)*
G04 Created by KiCad (PCBNEW 6.0.0-d3dd2cf0fa~116~ubuntu20.04.1) date 2021-12-31 14:11:41*
%MOMM*%
%LPD*%
G01*
G04 APERTURE LIST*
G04 Aperture macros list*
%AMRoundRect*
0 Rectangle with rounded corners*
0 $1 Rounding radius*
0 $2 $3 $4 $5 $6 $7 $8 $9 X,Y pos of 4 corners*
0 Add a 4 corners polygon primitive as box body*
4,1,4,$2,$3,$4,$5,$6,$7,$8,$9,$2,$3,0*
0 Add four circle primitives for the rounded corners*
1,1,$1+$1,$2,$3*
1,1,$1+$1,$4,$5*
1,1,$1+$1,$6,$7*
1,1,$1+$1,$8,$9*
0 Add four rect primitives between the rounded corners*
20,1,$1+$1,$2,$3,$4,$5,0*
20,1,$1+$1,$4,$5,$6,$7,0*
20,1,$1+$1,$6,$7,$8,$9,0*
20,1,$1+$1,$8,$9,$2,$3,0*%
G04 Aperture macros list end*
G04 #@! TA.AperFunction,ComponentPad*
%ADD10R,2.400000X1.600000*%
G04 #@! TD*
G04 #@! TA.AperFunction,ComponentPad*
%ADD11O,2.400000X1.600000*%
G04 #@! TD*
G04 #@! TA.AperFunction,ComponentPad*
%ADD12R,1.600000X1.600000*%
G04 #@! TD*
G04 #@! TA.AperFunction,ComponentPad*
%ADD13O,1.600000X1.600000*%
G04 #@! TD*
G04 #@! TA.AperFunction,ComponentPad*
%ADD14C,1.600000*%
G04 #@! TD*
G04 #@! TA.AperFunction,ConnectorPad*
%ADD15RoundRect,0.400000X4.600000X-0.400000X4.600000X0.400000X-4.600000X0.400000X-4.600000X-0.400000X0*%
G04 #@! TD*
G04 #@! TA.AperFunction,ComponentPad*
%ADD16R,1.700000X1.700000*%
G04 #@! TD*
G04 #@! TA.AperFunction,ComponentPad*
%ADD17O,1.700000X1.700000*%
G04 #@! TD*
G04 #@! TA.AperFunction,ViaPad*
%ADD18C,0.800000*%
G04 #@! TD*
G04 #@! TA.AperFunction,Conductor*
%ADD19C,0.250000*%
G04 #@! TD*
G04 APERTURE END LIST*
D10*
X93954600Y-48844200D03*
D11*
X93954600Y-51384200D03*
X93954600Y-53924200D03*
X93954600Y-56464200D03*
X93954600Y-59004200D03*
X93954600Y-61544200D03*
X93954600Y-64084200D03*
X93954600Y-66624200D03*
X93954600Y-69164200D03*
X93954600Y-71704200D03*
X93954600Y-74244200D03*
X93954600Y-76784200D03*
X93954600Y-79324200D03*
X93954600Y-81864200D03*
X93954600Y-84404200D03*
X93954600Y-86944200D03*
X109194600Y-86944200D03*
X109194600Y-84404200D03*
X109194600Y-81864200D03*
X109194600Y-79324200D03*
X109194600Y-76784200D03*
X109194600Y-74244200D03*
X109194600Y-71704200D03*
X109194600Y-69164200D03*
X109194600Y-66624200D03*
X109194600Y-64084200D03*
X109194600Y-61544200D03*
X109194600Y-59004200D03*
X109194600Y-56464200D03*
X109194600Y-53924200D03*
X109194600Y-51384200D03*
X109194600Y-48844200D03*
D12*
X75057000Y-68427600D03*
D13*
X75057000Y-65887600D03*
X75057000Y-63347600D03*
X75057000Y-60807600D03*
X75057000Y-58267600D03*
X75057000Y-55727600D03*
X75057000Y-53187600D03*
X75057000Y-50647600D03*
X67437000Y-50647600D03*
X67437000Y-53187600D03*
X67437000Y-55727600D03*
X67437000Y-58267600D03*
X67437000Y-60807600D03*
X67437000Y-63347600D03*
X67437000Y-65887600D03*
X67437000Y-68427600D03*
D14*
X83667600Y-77393800D03*
D13*
X83667600Y-85013800D03*
D14*
X71120000Y-77317600D03*
D13*
X71120000Y-84937600D03*
D14*
X75234800Y-77317600D03*
D13*
X75234800Y-84937600D03*
D14*
X66929000Y-77368400D03*
D13*
X66929000Y-84988400D03*
D14*
X79476600Y-77317600D03*
D13*
X79476600Y-84937600D03*
D14*
X88036400Y-77317600D03*
D13*
X88036400Y-84937600D03*
D15*
X130810200Y-46400200D03*
X130810200Y-48940200D03*
X130810200Y-51480200D03*
X130810200Y-54020200D03*
X130810200Y-56560200D03*
X130810200Y-59100200D03*
X130810200Y-61640200D03*
X130810200Y-64180200D03*
X130810200Y-66720200D03*
X130810200Y-69260200D03*
X130810200Y-71800200D03*
X130810200Y-74340200D03*
X130810200Y-76880200D03*
X130810200Y-79420200D03*
X130810200Y-81960200D03*
X130810200Y-84500200D03*
X130810200Y-87040200D03*
X130810200Y-89580200D03*
D14*
X82321400Y-47955200D03*
X87321400Y-47955200D03*
D16*
X87934800Y-66370200D03*
D17*
X87934800Y-68910200D03*
D16*
X82753200Y-66446400D03*
D17*
X82753200Y-68986400D03*
D16*
X88138000Y-60325000D03*
D17*
X88138000Y-57785000D03*
D16*
X82626200Y-60452000D03*
D17*
X82626200Y-57912000D03*
D18*
X98000610Y-50259190D03*
X122504200Y-79324200D03*
X123698000Y-79324200D03*
X124790200Y-79324200D03*
X105714800Y-84745990D03*
X86283800Y-87833200D03*
X103911400Y-86842600D03*
X91236800Y-60325000D03*
D19*
X70358000Y-62966600D02*
X75057000Y-58267600D01*
X97855620Y-50114200D02*
X98000610Y-50259190D01*
X70358000Y-73939400D02*
X70358000Y-62966600D01*
X66929000Y-77368400D02*
X70358000Y-73939400D01*
X75057000Y-58267600D02*
X83210400Y-50114200D01*
X83210400Y-50114200D02*
X97855620Y-50114200D01*
X69342000Y-71272400D02*
X64871600Y-75742800D01*
X79552800Y-85013800D02*
X79476600Y-84937600D01*
X107823000Y-80594200D02*
X101473000Y-86944200D01*
X93954600Y-86944200D02*
X90043000Y-86944200D01*
X75819000Y-54457600D02*
X72121998Y-54457600D01*
X88036400Y-84937600D02*
X87960200Y-85013800D01*
X64871600Y-82931000D02*
X66929000Y-84988400D01*
X126714200Y-79324200D02*
X126810200Y-79420200D01*
X126810200Y-79240200D02*
X126728400Y-79240200D01*
X71120000Y-84937600D02*
X66979800Y-84937600D01*
X125069600Y-80594200D02*
X107823000Y-80594200D01*
X79476600Y-84937600D02*
X75234800Y-84937600D01*
X126810200Y-79420200D02*
X126243600Y-79420200D01*
X72121998Y-54457600D02*
X69342000Y-57237598D01*
X126810200Y-76740200D02*
X124605600Y-76740200D01*
X101473000Y-86944200D02*
X93954600Y-86944200D01*
X75234800Y-84937600D02*
X74103430Y-84937600D01*
X83667600Y-85013800D02*
X79552800Y-85013800D01*
X69342000Y-57237598D02*
X69342000Y-71272400D01*
X87960200Y-85013800D02*
X83667600Y-85013800D01*
X126810200Y-79420200D02*
X126703000Y-79527400D01*
X82321400Y-47955200D02*
X75819000Y-54457600D01*
X124790200Y-79324200D02*
X126714200Y-79324200D01*
X66979800Y-84937600D02*
X66929000Y-84988400D01*
X90043000Y-86944200D02*
X88036400Y-84937600D01*
X74103430Y-84937600D02*
X71120000Y-84937600D01*
X64871600Y-75742800D02*
X64871600Y-82931000D01*
X126243600Y-79420200D02*
X125069600Y-80594200D01*
X78663800Y-55803800D02*
X83083400Y-51384200D01*
X73837800Y-62026800D02*
X75057000Y-60807600D01*
X75057000Y-60807600D02*
X78663800Y-57200800D01*
X72390000Y-63474600D02*
X73837800Y-62026800D01*
X78663800Y-57200800D02*
X78663800Y-55803800D01*
X71120000Y-77317600D02*
X72390000Y-76047600D01*
X72390000Y-76047600D02*
X72390000Y-63474600D01*
X83083400Y-51384200D02*
X93954600Y-51384200D01*
X73810599Y-66852588D02*
X73812400Y-66852588D01*
X73481988Y-67181199D02*
X73810599Y-66852588D01*
X82905600Y-53924200D02*
X93954600Y-53924200D01*
X74257001Y-64147599D02*
X75057000Y-63347600D01*
X75234800Y-77317600D02*
X73481988Y-75564788D01*
X80035400Y-58369200D02*
X80035400Y-56794400D01*
X73481988Y-75564788D02*
X73481988Y-67181199D01*
X75057000Y-63347600D02*
X80035400Y-58369200D01*
X73812400Y-64592200D02*
X74257001Y-64147599D01*
X80035400Y-56794400D02*
X82905600Y-53924200D01*
X73812400Y-66852588D02*
X73812400Y-64592200D01*
X109194600Y-48844200D02*
X107744600Y-48844200D01*
X67437000Y-63347600D02*
X67437000Y-62216230D01*
X107744600Y-48844200D02*
X104976000Y-46075600D01*
X67437000Y-62216230D02*
X67437000Y-60807600D01*
X67437000Y-68427600D02*
X67437000Y-65887600D01*
X67437000Y-55575200D02*
X67437000Y-55727600D01*
X67437000Y-65887600D02*
X67437000Y-64756230D01*
X67437000Y-55727600D02*
X67437000Y-56858970D01*
X67437000Y-64756230D02*
X67437000Y-63347600D01*
X67437000Y-56858970D02*
X67437000Y-58267600D01*
X67437000Y-59676230D02*
X67437000Y-58267600D01*
X76936600Y-46075600D02*
X67437000Y-55575200D01*
X67437000Y-60807600D02*
X67437000Y-59676230D01*
X104976000Y-46075600D02*
X76936600Y-46075600D01*
X106109610Y-84745990D02*
X105714800Y-84745990D01*
X113103200Y-81740200D02*
X111734600Y-83108800D01*
X107746800Y-83108800D02*
X106109610Y-84745990D01*
X126810200Y-81740200D02*
X113103200Y-81740200D01*
X111734600Y-83108800D02*
X107746800Y-83108800D01*
X115925600Y-47523400D02*
X113334800Y-50114200D01*
X125384800Y-49240200D02*
X123668000Y-47523400D01*
X113334800Y-50114200D02*
X102844600Y-50114200D01*
X123668000Y-47523400D02*
X115925600Y-47523400D01*
X102844600Y-50114200D02*
X94208600Y-58750200D01*
X94208600Y-58750200D02*
X93954600Y-59004200D01*
X126810200Y-49240200D02*
X125384800Y-49240200D01*
X121335800Y-53390800D02*
X114376200Y-53390800D01*
X95097600Y-61544200D02*
X93954600Y-61544200D01*
X103987600Y-52654200D02*
X95097600Y-61544200D01*
X122986400Y-51740200D02*
X121335800Y-53390800D01*
X126810200Y-51740200D02*
X122986400Y-51740200D01*
X113639600Y-52654200D02*
X103987600Y-52654200D01*
X114376200Y-53390800D02*
X113639600Y-52654200D01*
X95148400Y-64084200D02*
X93954600Y-64084200D01*
X122478800Y-55168800D02*
X104063800Y-55168800D01*
X126810200Y-54240200D02*
X126745200Y-54305200D01*
X123342400Y-54305200D02*
X122478800Y-55168800D01*
X126745200Y-54305200D02*
X123342400Y-54305200D01*
X104063800Y-55168800D02*
X95148400Y-64084200D01*
X95910400Y-66624200D02*
X93954600Y-66624200D01*
X120907400Y-56740200D02*
X119913400Y-57734200D01*
X119913400Y-57734200D02*
X104800400Y-57734200D01*
X126810200Y-56740200D02*
X120907400Y-56740200D01*
X104800400Y-57734200D02*
X95910400Y-66624200D01*
X112268000Y-62788800D02*
X103581200Y-62788800D01*
X126810200Y-59240200D02*
X115816600Y-59240200D01*
X103581200Y-62788800D02*
X97205800Y-69164200D01*
X115816600Y-59240200D02*
X112268000Y-62788800D01*
X97205800Y-69164200D02*
X93954600Y-69164200D01*
X111582200Y-65328800D02*
X103505000Y-65328800D01*
X126810200Y-61740200D02*
X126803000Y-61747400D01*
X126803000Y-61747400D02*
X115163600Y-61747400D01*
X115163600Y-61747400D02*
X111582200Y-65328800D01*
X97129600Y-71704200D02*
X93954600Y-71704200D01*
X103505000Y-65328800D02*
X97129600Y-71704200D01*
X98069400Y-74244200D02*
X93954600Y-74244200D01*
X111328200Y-67919600D02*
X104394000Y-67919600D01*
X115007600Y-64240200D02*
X111328200Y-67919600D01*
X126810200Y-64240200D02*
X115007600Y-64240200D01*
X104394000Y-67919600D02*
X98069400Y-74244200D01*
X111836200Y-70434200D02*
X105511600Y-70434200D01*
X113411000Y-72009000D02*
X111836200Y-70434200D01*
X99161600Y-76784200D02*
X93954600Y-76784200D01*
X119481600Y-72009000D02*
X113411000Y-72009000D01*
X126810200Y-66740200D02*
X124750400Y-66740200D01*
X105511600Y-70434200D02*
X99161600Y-76784200D01*
X124750400Y-66740200D02*
X119481600Y-72009000D01*
X124968200Y-69240200D02*
X121234200Y-72974200D01*
X121234200Y-72974200D02*
X107035600Y-72974200D01*
X100685600Y-79324200D02*
X93954600Y-79324200D01*
X107035600Y-72974200D02*
X100685600Y-79324200D01*
X126810200Y-69240200D02*
X124968200Y-69240200D01*
X101346000Y-81864200D02*
X93954600Y-81864200D01*
X107721400Y-75488800D02*
X101346000Y-81864200D01*
X120827800Y-75488800D02*
X107721400Y-75488800D01*
X124576400Y-71740200D02*
X120827800Y-75488800D01*
X126810200Y-71740200D02*
X124576400Y-71740200D01*
X124735400Y-74240200D02*
X120921400Y-78054200D01*
X120921400Y-78054200D02*
X107188000Y-78054200D01*
X100838000Y-84404200D02*
X93954600Y-84404200D01*
X126810200Y-74240200D02*
X124735400Y-74240200D01*
X107188000Y-78054200D02*
X100838000Y-84404200D01*
X126174400Y-87376000D02*
X121437400Y-87376000D01*
X121437400Y-87376000D02*
X120580201Y-88233199D01*
X126810200Y-86740200D02*
X126174400Y-87376000D01*
X86683799Y-88233199D02*
X86283800Y-87833200D01*
X120580201Y-88233199D02*
X86683799Y-88233199D01*
X105257600Y-86842600D02*
X104546400Y-86842600D01*
X114350800Y-82880200D02*
X111531400Y-85699600D01*
X111531400Y-85699600D02*
X106400600Y-85699600D01*
X106400600Y-85699600D02*
X105257600Y-86842600D01*
X104546400Y-86842600D02*
X103911400Y-86842600D01*
X125450200Y-82880200D02*
X114350800Y-82880200D01*
X126810200Y-84240200D02*
X125450200Y-82880200D01*
X79476600Y-77317600D02*
X79476600Y-75819000D01*
X73931999Y-70274399D02*
X73931999Y-67471211D01*
X80492600Y-60452000D02*
X82626200Y-60452000D01*
X79476600Y-75819000D02*
X73931999Y-70274399D01*
X75057000Y-66346210D02*
X75057000Y-65887600D01*
X73931999Y-67471211D02*
X75057000Y-66346210D01*
X75057000Y-65887600D02*
X80492600Y-60452000D01*
X75082400Y-68427600D02*
X75057000Y-68427600D01*
X77038200Y-66446400D02*
X82753200Y-66446400D01*
X75057000Y-68427600D02*
X77038200Y-66446400D01*
X83667600Y-77012800D02*
X75082400Y-68427600D01*
X83667600Y-77393800D02*
X83667600Y-77012800D01*
X92100400Y-65328800D02*
X95351600Y-65328800D01*
X88798400Y-57785000D02*
X90246200Y-59232800D01*
X86935919Y-57785000D02*
X86808919Y-57912000D01*
X83828281Y-57912000D02*
X82626200Y-57912000D01*
X88138000Y-57785000D02*
X86935919Y-57785000D01*
X86808919Y-57912000D02*
X83828281Y-57912000D01*
X90246200Y-63474600D02*
X92100400Y-65328800D01*
X104216200Y-56464200D02*
X109194600Y-56464200D01*
X95351600Y-65328800D02*
X104216200Y-56464200D01*
X90246200Y-59232800D02*
X90246200Y-63474600D01*
X88138000Y-57785000D02*
X88798400Y-57785000D01*
X92710000Y-67894200D02*
X96494600Y-67894200D01*
X107416600Y-59004200D02*
X109194600Y-59004200D01*
X82753200Y-68986400D02*
X87858600Y-68986400D01*
X105384600Y-59004200D02*
X107416600Y-59004200D01*
X87934800Y-68910200D02*
X91694000Y-68910200D01*
X91694000Y-68910200D02*
X92710000Y-67894200D01*
X96494600Y-67894200D02*
X105384600Y-59004200D01*
X87858600Y-68986400D02*
X87934800Y-68910200D01*
X103565604Y-51384200D02*
X94624804Y-60325000D01*
X94624804Y-60325000D02*
X91802485Y-60325000D01*
X109194600Y-51384200D02*
X103565604Y-51384200D01*
X91802485Y-60325000D02*
X91236800Y-60325000D01*
G04 #@! TA.AperFunction,Conductor*
G36*
X126583050Y-76068764D02*
G01*
X126630547Y-76121533D01*
X126642933Y-76177451D01*
X126628902Y-77419200D01*
X126594977Y-80421543D01*
X126574206Y-80489433D01*
X126520029Y-80535317D01*
X126471766Y-80546088D01*
X121202222Y-80662327D01*
X119972662Y-80689450D01*
X119904116Y-80670955D01*
X119856452Y-80618338D01*
X119844800Y-80548304D01*
X119875468Y-80480044D01*
X122577038Y-77423004D01*
X122584054Y-77415681D01*
X123916396Y-76132686D01*
X123979339Y-76099842D01*
X124001418Y-76097468D01*
X126514564Y-76050050D01*
X126583050Y-76068764D01*
G37*
G04 #@! TD.AperFunction*
M02*
